<svg width="141" height="40" viewBox="0 0 141 40" fill="none" xmlns="http://www.w3.org/2000/svg">
<mask id="path-1-outside-1_17_2047" maskUnits="userSpaceOnUse" x="-0.816406" y="3" width="142" height="33" fill="black">
<rect fill="white" x="-0.816406" y="3" width="142" height="33"/>
<path d="M3.74359 32V14.496L3.10359 11.296L3.77559 9.376H9.88759L16.1596 21.536H16.7996L21.9836 9.376H28.3516L28.6716 11.296L28.3516 14.368V32H22.5596L22.6556 29.28V20.352H22.3036L21.0236 23.424L18.1436 28.8H14.3036L9.88759 20.352H9.56759V22.944L9.88759 32H3.74359ZM39.8698 32.32C38.2272 32.32 36.7658 32.0747 35.4858 31.584C34.2058 31.0933 33.2032 30.272 32.4778 29.12C31.7525 27.968 31.3898 26.4107 31.3898 24.448C31.3898 23.04 31.6245 21.8347 32.0938 20.832C32.5845 19.8293 33.2352 19.0187 34.0458 18.4C34.8565 17.76 35.7632 17.3013 36.7658 17.024C37.7685 16.7253 38.8032 16.576 39.8698 16.576C41.7045 16.576 43.1125 16.7573 44.0938 17.12C45.0965 17.4827 45.7578 17.7707 46.0778 17.984L47.6778 23.072L47.0378 25.056H37.1178C37.2672 25.8453 37.6618 26.5067 38.3018 27.04C38.9418 27.5733 39.9978 27.84 41.4698 27.84C42.6218 27.84 43.6138 27.712 44.4458 27.456C45.2778 27.2 45.9285 26.976 46.3978 26.784V31.072C45.7578 31.4133 44.8298 31.712 43.6138 31.968C42.4192 32.2027 41.1712 32.32 39.8698 32.32ZM37.1498 23.008L41.5658 22.368L41.2778 20.992C41.1285 20.9067 40.9045 20.8427 40.6058 20.8C40.3285 20.7573 40.0832 20.736 39.8698 20.736C39.2725 20.736 38.7712 20.864 38.3658 21.12C37.9818 21.376 37.6832 21.6853 37.4698 22.048C37.2778 22.3893 37.1712 22.7093 37.1498 23.008ZM49.7136 18.848L50.7056 16.896H55.4736V18.272L55.7616 18.464C55.9963 18.2507 56.3163 18.0053 56.7216 17.728C57.1483 17.4293 57.6603 17.1627 58.2576 16.928C58.8549 16.6933 59.5269 16.576 60.2736 16.576C62.4923 16.576 64.0816 17.312 65.0416 18.784C65.4256 18.2507 66.0016 17.7493 66.7696 17.28C67.5589 16.7893 68.6469 16.544 70.0336 16.544C71.9536 16.544 73.3936 17.088 74.3536 18.176C75.3136 19.264 75.7936 20.7893 75.7936 22.752V26.848L76.4656 30.048L75.7936 32H70.0336V23.584C70.0336 22.7733 69.8523 22.1547 69.4896 21.728C69.1483 21.28 68.6043 21.056 67.8576 21.056C67.3669 21.056 66.9403 21.2373 66.5776 21.6C66.2149 21.9627 66.0336 22.4213 66.0336 22.976V32H60.2736V23.616C60.2736 22.8053 60.0923 22.1867 59.7296 21.76C59.3883 21.312 58.8443 21.088 58.0976 21.088L56.1136 21.696V32H50.3536V22.368L49.7136 18.848ZM86.7381 32.32C84.1354 32.32 82.1194 31.7013 80.6901 30.464C79.2608 29.2267 78.5461 27.2213 78.5461 24.448C78.5461 21.6533 79.2608 19.648 80.6901 18.432C82.1194 17.1947 84.1354 16.576 86.7381 16.576C89.4048 16.576 91.4208 17.1947 92.7861 18.432C94.1728 19.648 94.8661 21.6533 94.8661 24.448C94.8661 27.2213 94.1728 29.2267 92.7861 30.464C91.4208 31.7013 89.4048 32.32 86.7381 32.32ZM86.7381 28.16C87.6128 28.16 88.2208 27.84 88.5621 27.2C88.9034 26.5387 89.0741 25.6213 89.0741 24.448C89.0741 23.2533 88.9034 22.336 88.5621 21.696C88.2208 21.056 87.6128 20.736 86.7381 20.736C85.8421 20.736 85.2128 21.056 84.8501 21.696C84.5088 22.336 84.3381 23.2533 84.3381 24.448C84.3381 25.6213 84.5088 26.5387 84.8501 27.2C85.2128 27.84 85.8421 28.16 86.7381 28.16ZM97.6043 32V21.984L96.9323 18.784L97.6043 16.864H101.956L102.596 17.6C102.596 17.6 102.746 17.5147 103.044 17.344C103.343 17.152 103.759 16.9707 104.292 16.8C104.847 16.6293 105.487 16.544 106.212 16.544C106.639 16.544 107.066 16.576 107.492 16.64C107.919 16.704 108.25 16.7893 108.484 16.896L110.564 18.656L108.484 22.752L104.26 20.992L103.3 21.312V32H97.6043ZM115.359 15.968L111.295 11.872L115.359 7.808L119.423 11.872L115.359 15.968ZM112.479 32V21.408L111.807 18.848L112.447 16.896H118.239V32H112.479ZM125.982 32.32C125.065 32.32 124.212 32.192 123.422 31.936C122.654 31.6587 122.036 31.1893 121.566 30.528C121.097 29.8667 120.862 28.9493 120.862 27.776C120.862 26.7093 121.129 25.824 121.662 25.12C122.196 24.416 122.921 23.8933 123.838 23.552C124.756 23.2107 125.79 23.04 126.942 23.04C128.052 23.04 128.884 23.168 129.438 23.424C129.993 23.6587 130.473 23.904 130.878 24.16L131.102 23.968C131.102 23.328 131.049 22.7947 130.942 22.368C130.836 21.9413 130.59 21.6213 130.206 21.408C129.822 21.1733 129.225 21.056 128.414 21.056C127.625 21.056 126.782 21.1307 125.886 21.28C125.012 21.408 124.201 21.5787 123.454 21.792C122.729 21.984 122.185 22.176 121.822 22.368V17.568C122.484 17.3333 123.422 17.12 124.638 16.928C125.876 16.7147 127.39 16.608 129.182 16.608C131.102 16.608 132.617 16.8533 133.726 17.344C134.857 17.8133 135.668 18.5067 136.158 19.424C136.649 20.32 136.894 21.3973 136.894 22.656V26.912L137.534 30.144L136.894 32.032H131.422V30.464L131.102 30.304C130.932 30.4747 130.633 30.72 130.206 31.04C129.78 31.36 129.214 31.6587 128.51 31.936C127.806 32.192 126.964 32.32 125.982 32.32ZM128.702 28.128C129.278 28.128 129.769 28.0747 130.174 27.968C130.601 27.8613 130.91 27.7653 131.102 27.68V27.072C131.102 26.7947 130.9 26.528 130.494 26.272C130.11 26.016 129.502 25.888 128.67 25.888C127.518 25.888 126.942 26.2933 126.942 27.104C126.942 27.4453 127.07 27.7013 127.326 27.872C127.582 28.0427 128.041 28.128 128.702 28.128Z"/>
</mask>
<path d="M3.74359 32V14.496L3.10359 11.296L3.77559 9.376H9.88759L16.1596 21.536H16.7996L21.9836 9.376H28.3516L28.6716 11.296L28.3516 14.368V32H22.5596L22.6556 29.28V20.352H22.3036L21.0236 23.424L18.1436 28.8H14.3036L9.88759 20.352H9.56759V22.944L9.88759 32H3.74359ZM39.8698 32.32C38.2272 32.32 36.7658 32.0747 35.4858 31.584C34.2058 31.0933 33.2032 30.272 32.4778 29.12C31.7525 27.968 31.3898 26.4107 31.3898 24.448C31.3898 23.04 31.6245 21.8347 32.0938 20.832C32.5845 19.8293 33.2352 19.0187 34.0458 18.4C34.8565 17.76 35.7632 17.3013 36.7658 17.024C37.7685 16.7253 38.8032 16.576 39.8698 16.576C41.7045 16.576 43.1125 16.7573 44.0938 17.12C45.0965 17.4827 45.7578 17.7707 46.0778 17.984L47.6778 23.072L47.0378 25.056H37.1178C37.2672 25.8453 37.6618 26.5067 38.3018 27.04C38.9418 27.5733 39.9978 27.84 41.4698 27.84C42.6218 27.84 43.6138 27.712 44.4458 27.456C45.2778 27.2 45.9285 26.976 46.3978 26.784V31.072C45.7578 31.4133 44.8298 31.712 43.6138 31.968C42.4192 32.2027 41.1712 32.32 39.8698 32.32ZM37.1498 23.008L41.5658 22.368L41.2778 20.992C41.1285 20.9067 40.9045 20.8427 40.6058 20.8C40.3285 20.7573 40.0832 20.736 39.8698 20.736C39.2725 20.736 38.7712 20.864 38.3658 21.12C37.9818 21.376 37.6832 21.6853 37.4698 22.048C37.2778 22.3893 37.1712 22.7093 37.1498 23.008ZM49.7136 18.848L50.7056 16.896H55.4736V18.272L55.7616 18.464C55.9963 18.2507 56.3163 18.0053 56.7216 17.728C57.1483 17.4293 57.6603 17.1627 58.2576 16.928C58.8549 16.6933 59.5269 16.576 60.2736 16.576C62.4923 16.576 64.0816 17.312 65.0416 18.784C65.4256 18.2507 66.0016 17.7493 66.7696 17.28C67.5589 16.7893 68.6469 16.544 70.0336 16.544C71.9536 16.544 73.3936 17.088 74.3536 18.176C75.3136 19.264 75.7936 20.7893 75.7936 22.752V26.848L76.4656 30.048L75.7936 32H70.0336V23.584C70.0336 22.7733 69.8523 22.1547 69.4896 21.728C69.1483 21.28 68.6043 21.056 67.8576 21.056C67.3669 21.056 66.9403 21.2373 66.5776 21.6C66.2149 21.9627 66.0336 22.4213 66.0336 22.976V32H60.2736V23.616C60.2736 22.8053 60.0923 22.1867 59.7296 21.76C59.3883 21.312 58.8443 21.088 58.0976 21.088L56.1136 21.696V32H50.3536V22.368L49.7136 18.848ZM86.7381 32.32C84.1354 32.32 82.1194 31.7013 80.6901 30.464C79.2608 29.2267 78.5461 27.2213 78.5461 24.448C78.5461 21.6533 79.2608 19.648 80.6901 18.432C82.1194 17.1947 84.1354 16.576 86.7381 16.576C89.4048 16.576 91.4208 17.1947 92.7861 18.432C94.1728 19.648 94.8661 21.6533 94.8661 24.448C94.8661 27.2213 94.1728 29.2267 92.7861 30.464C91.4208 31.7013 89.4048 32.32 86.7381 32.32ZM86.7381 28.16C87.6128 28.16 88.2208 27.84 88.5621 27.2C88.9034 26.5387 89.0741 25.6213 89.0741 24.448C89.0741 23.2533 88.9034 22.336 88.5621 21.696C88.2208 21.056 87.6128 20.736 86.7381 20.736C85.8421 20.736 85.2128 21.056 84.8501 21.696C84.5088 22.336 84.3381 23.2533 84.3381 24.448C84.3381 25.6213 84.5088 26.5387 84.8501 27.2C85.2128 27.84 85.8421 28.16 86.7381 28.16ZM97.6043 32V21.984L96.9323 18.784L97.6043 16.864H101.956L102.596 17.6C102.596 17.6 102.746 17.5147 103.044 17.344C103.343 17.152 103.759 16.9707 104.292 16.8C104.847 16.6293 105.487 16.544 106.212 16.544C106.639 16.544 107.066 16.576 107.492 16.64C107.919 16.704 108.25 16.7893 108.484 16.896L110.564 18.656L108.484 22.752L104.26 20.992L103.3 21.312V32H97.6043ZM115.359 15.968L111.295 11.872L115.359 7.808L119.423 11.872L115.359 15.968ZM112.479 32V21.408L111.807 18.848L112.447 16.896H118.239V32H112.479ZM125.982 32.32C125.065 32.32 124.212 32.192 123.422 31.936C122.654 31.6587 122.036 31.1893 121.566 30.528C121.097 29.8667 120.862 28.9493 120.862 27.776C120.862 26.7093 121.129 25.824 121.662 25.12C122.196 24.416 122.921 23.8933 123.838 23.552C124.756 23.2107 125.79 23.04 126.942 23.04C128.052 23.04 128.884 23.168 129.438 23.424C129.993 23.6587 130.473 23.904 130.878 24.16L131.102 23.968C131.102 23.328 131.049 22.7947 130.942 22.368C130.836 21.9413 130.59 21.6213 130.206 21.408C129.822 21.1733 129.225 21.056 128.414 21.056C127.625 21.056 126.782 21.1307 125.886 21.28C125.012 21.408 124.201 21.5787 123.454 21.792C122.729 21.984 122.185 22.176 121.822 22.368V17.568C122.484 17.3333 123.422 17.12 124.638 16.928C125.876 16.7147 127.39 16.608 129.182 16.608C131.102 16.608 132.617 16.8533 133.726 17.344C134.857 17.8133 135.668 18.5067 136.158 19.424C136.649 20.32 136.894 21.3973 136.894 22.656V26.912L137.534 30.144L136.894 32.032H131.422V30.464L131.102 30.304C130.932 30.4747 130.633 30.72 130.206 31.04C129.78 31.36 129.214 31.6587 128.51 31.936C127.806 32.192 126.964 32.32 125.982 32.32ZM128.702 28.128C129.278 28.128 129.769 28.0747 130.174 27.968C130.601 27.8613 130.91 27.7653 131.102 27.68V27.072C131.102 26.7947 130.9 26.528 130.494 26.272C130.11 26.016 129.502 25.888 128.67 25.888C127.518 25.888 126.942 26.2933 126.942 27.104C126.942 27.4453 127.07 27.7013 127.326 27.872C127.582 28.0427 128.041 28.128 128.702 28.128Z" fill="black"/>
<path d="M3.74359 32H0.743594V35H3.74359V32ZM3.74359 14.496H6.74359V14.1989L6.68534 13.9076L3.74359 14.496ZM3.10359 11.296L0.272019 10.3049L0.000898004 11.0796L0.161852 11.8843L3.10359 11.296ZM3.77559 9.376V6.376H1.64715L0.944019 8.38495L3.77559 9.376ZM9.88759 9.376L12.5538 8.00079L11.7158 6.376H9.88759V9.376ZM16.1596 21.536L13.4934 22.9112L14.3314 24.536H16.1596V21.536ZM16.7996 21.536V24.536H18.7819L19.5593 22.7125L16.7996 21.536ZM21.9836 9.376V6.376H20.0013L19.2239 8.1995L21.9836 9.376ZM28.3516 9.376L31.3108 8.8828L30.893 6.376H28.3516V9.376ZM28.6716 11.296L31.6555 11.6068L31.6975 11.2031L31.6308 10.8028L28.6716 11.296ZM28.3516 14.368L25.3677 14.0572L25.3516 14.2122V14.368H28.3516ZM28.3516 32V35H31.3516V32H28.3516ZM22.5596 32L19.5615 31.8942L19.4518 35H22.5596V32ZM22.6556 29.28L25.6537 29.3858L25.6556 29.3329V29.28H22.6556ZM22.6556 20.352H25.6556V17.352H22.6556V20.352ZM22.3036 20.352V17.352H20.3036L19.5344 19.1982L22.3036 20.352ZM21.0236 23.424L23.668 24.8407L23.7368 24.7123L23.7928 24.5778L21.0236 23.424ZM18.1436 28.8V31.8H19.9398L20.788 30.2167L18.1436 28.8ZM14.3036 28.8L11.6449 30.1898L12.4866 31.8H14.3036V28.8ZM9.88759 20.352L12.5463 18.9622L11.7046 17.352H9.88759V20.352ZM9.56759 20.352V17.352H6.56759V20.352H9.56759ZM9.56759 22.944H6.56759V22.997L6.56947 23.0499L9.56759 22.944ZM9.88759 32V35H12.9955L12.8857 31.8941L9.88759 32ZM3.74359 32H6.74359V14.496H3.74359H0.743594V32H3.74359ZM3.74359 14.496L6.68534 13.9076L6.04534 10.7077L3.10359 11.296L0.161852 11.8843L0.801852 15.0843L3.74359 14.496ZM3.10359 11.296L5.93517 12.2871L6.60717 10.3671L3.77559 9.376L0.944019 8.38495L0.272019 10.3049L3.10359 11.296ZM3.77559 9.376V12.376H9.88759V9.376V6.376H3.77559V9.376ZM9.88759 9.376L7.22136 10.7512L13.4934 22.9112L16.1596 21.536L18.8258 20.1608L12.5538 8.00079L9.88759 9.376ZM16.1596 21.536V24.536H16.7996V21.536V18.536H16.1596V21.536ZM16.7996 21.536L19.5593 22.7125L24.7433 10.5525L21.9836 9.376L19.2239 8.1995L14.0399 20.3595L16.7996 21.536ZM21.9836 9.376V12.376H28.3516V9.376V6.376H21.9836V9.376ZM28.3516 9.376L25.3924 9.8692L25.7124 11.7892L28.6716 11.296L31.6308 10.8028L31.3108 8.8828L28.3516 9.376ZM28.6716 11.296L25.6877 10.9852L25.3677 14.0572L28.3516 14.368L31.3355 14.6788L31.6555 11.6068L28.6716 11.296ZM28.3516 14.368H25.3516V32H28.3516H31.3516V14.368H28.3516ZM28.3516 32V29H22.5596V32V35H28.3516V32ZM22.5596 32L25.5577 32.1058L25.6537 29.3858L22.6556 29.28L19.6575 29.1742L19.5615 31.8942L22.5596 32ZM22.6556 29.28H25.6556V20.352H22.6556H19.6556V29.28H22.6556ZM22.6556 20.352V17.352H22.3036V20.352V23.352H22.6556V20.352ZM22.3036 20.352L19.5344 19.1982L18.2544 22.2702L21.0236 23.424L23.7928 24.5778L25.0728 21.5058L22.3036 20.352ZM21.0236 23.424L18.3792 22.0073L15.4992 27.3833L18.1436 28.8L20.788 30.2167L23.668 24.8407L21.0236 23.424ZM18.1436 28.8V25.8H14.3036V28.8V31.8H18.1436V28.8ZM14.3036 28.8L16.9623 27.4102L12.5463 18.9622L9.88759 20.352L7.22892 21.7418L11.6449 30.1898L14.3036 28.8ZM9.88759 20.352V17.352H9.56759V20.352V23.352H9.88759V20.352ZM9.56759 20.352H6.56759V22.944H9.56759H12.5676V20.352H9.56759ZM9.56759 22.944L6.56947 23.0499L6.88947 32.1059L9.88759 32L12.8857 31.8941L12.5657 22.8381L9.56759 22.944ZM9.88759 32V29H3.74359V32V35H9.88759V32ZM35.4858 31.584L36.5597 28.7828L35.4858 31.584ZM32.4778 29.12L35.0165 27.5216H35.0165L32.4778 29.12ZM32.0938 20.832L29.3992 19.5133L29.3878 19.5367L29.3768 19.5602L32.0938 20.832ZM34.0458 18.4L35.8659 20.7849L35.8854 20.7699L35.9048 20.7546L34.0458 18.4ZM36.7658 17.024L37.5656 19.9154L37.594 19.9076L37.6223 19.8992L36.7658 17.024ZM44.0938 17.12L43.0539 19.934L43.0637 19.9376L43.0734 19.9411L44.0938 17.12ZM46.0778 17.984L48.9397 17.0841L48.6223 16.0747L47.7419 15.4878L46.0778 17.984ZM47.6778 23.072L50.533 23.993L50.8263 23.0836L50.5397 22.1721L47.6778 23.072ZM47.0378 25.056V28.056H49.2223L49.893 25.977L47.0378 25.056ZM37.1178 25.056V22.056H33.4971L34.1701 25.6137L37.1178 25.056ZM38.3018 27.04L36.3813 29.3447V29.3447L38.3018 27.04ZM44.4458 27.456L45.3281 30.3233L44.4458 27.456ZM46.3978 26.784H49.3978V22.3154L45.2619 24.0074L46.3978 26.784ZM46.3978 31.072L47.8096 33.7191L49.3978 32.872V31.072H46.3978ZM43.6138 31.968L44.1921 34.9117L44.212 34.9078L44.2319 34.9036L43.6138 31.968ZM37.1498 23.008L34.1575 22.7943L33.8919 26.5115L37.5801 25.977L37.1498 23.008ZM41.5658 22.368L41.9961 25.337L45.1564 24.879L44.5022 21.7534L41.5658 22.368ZM41.2778 20.992L44.2142 20.3774L43.9378 19.0567L42.7663 18.3873L41.2778 20.992ZM40.6058 20.8L40.1497 23.7651L40.1656 23.7676L40.1816 23.7698L40.6058 20.8ZM38.3658 21.12L36.7639 18.5835L36.7326 18.6033L36.7017 18.6238L38.3658 21.12ZM37.4698 22.048L34.884 20.5269L34.8693 20.5519L34.8551 20.5772L37.4698 22.048ZM39.8698 32.32V29.32C38.5233 29.32 37.4363 29.1188 36.5597 28.7828L35.4858 31.584L34.412 34.3852C36.0954 35.0305 37.9311 35.32 39.8698 35.32V32.32ZM35.4858 31.584L36.5597 28.7828C35.8805 28.5224 35.3938 28.1207 35.0165 27.5216L32.4778 29.12L29.9391 30.7184C31.0126 32.4233 32.5311 33.6642 34.412 34.3852L35.4858 31.584ZM32.4778 29.12L35.0165 27.5216C34.6978 27.0153 34.3898 26.0817 34.3898 24.448H31.3898H28.3898C28.3898 26.7396 28.8072 28.9207 29.9391 30.7184L32.4778 29.12ZM31.3898 24.448H34.3898C34.3898 23.364 34.5714 22.6155 34.8109 22.1038L32.0938 20.832L29.3768 19.5602C28.6776 21.0538 28.3898 22.716 28.3898 24.448H31.3898ZM32.0938 20.832L34.7885 22.1507C35.0941 21.5262 35.4597 21.0949 35.8659 20.7849L34.0458 18.4L32.2258 16.0151C31.0107 16.9425 30.0749 18.1325 29.3992 19.5133L32.0938 20.832ZM34.0458 18.4L35.9048 20.7546C36.3994 20.3642 36.9454 20.087 37.5656 19.9154L36.7658 17.024L35.9661 14.1326C34.581 14.5157 33.3137 15.1558 32.1869 16.0454L34.0458 18.4ZM36.7658 17.024L37.6223 19.8992C38.3416 19.6849 39.0875 19.576 39.8698 19.576V16.576V13.576C38.5189 13.576 37.1955 13.7658 35.9094 14.1488L36.7658 17.024ZM39.8698 16.576V19.576C41.5755 19.576 42.5664 19.7538 43.0539 19.934L44.0938 17.12L45.1338 14.306C43.6587 13.7609 41.8336 13.576 39.8698 13.576V16.576ZM44.0938 17.12L43.0734 19.9411C43.5403 20.11 43.8921 20.2488 44.144 20.3585C44.4268 20.4816 44.478 20.523 44.4137 20.4802L46.0778 17.984L47.7419 15.4878C47.0755 15.0436 46.0781 14.6475 45.1143 14.2989L44.0938 17.12ZM46.0778 17.984L43.216 18.8839L44.816 23.9719L47.6778 23.072L50.5397 22.1721L48.9397 17.0841L46.0778 17.984ZM47.6778 23.072L44.8227 22.151L44.1827 24.135L47.0378 25.056L49.893 25.977L50.533 23.993L47.6778 23.072ZM47.0378 25.056V22.056H37.1178V25.056V28.056H47.0378V25.056ZM37.1178 25.056L34.1701 25.6137C34.454 27.1139 35.2281 28.3837 36.3813 29.3447L38.3018 27.04L40.2224 24.7353C40.0956 24.6296 40.0804 24.5768 40.0656 24.4983L37.1178 25.056ZM38.3018 27.04L36.3813 29.3447C37.8416 30.5616 39.7795 30.84 41.4698 30.84V27.84V24.84C40.901 24.84 40.529 24.787 40.3084 24.7313C40.0874 24.6755 40.1082 24.6401 40.2224 24.7353L38.3018 27.04ZM41.4698 27.84V30.84C42.8304 30.84 44.135 30.6904 45.3281 30.3233L44.4458 27.456L43.5636 24.5887C43.0927 24.7336 42.4133 24.84 41.4698 24.84V27.84ZM44.4458 27.456L45.3281 30.3233C46.1946 30.0567 46.9431 29.8023 47.5337 29.5606L46.3978 26.784L45.2619 24.0074C44.9139 24.1497 44.3611 24.3433 43.5636 24.5887L44.4458 27.456ZM46.3978 26.784H43.3978V31.072H46.3978H49.3978V26.784H46.3978ZM46.3978 31.072L44.9861 28.4249C44.7114 28.5715 44.102 28.7995 42.9958 29.0324L43.6138 31.968L44.2319 34.9036C45.5577 34.6245 46.8043 34.2552 47.8096 33.7191L46.3978 31.072ZM43.6138 31.968L43.0356 29.0243C42.044 29.219 40.9903 29.32 39.8698 29.32V32.32V35.32C41.3521 35.32 42.7944 35.1863 44.1921 34.9117L43.6138 31.968ZM37.1498 23.008L37.5801 25.977L41.9961 25.337L41.5658 22.368L41.1356 19.399L36.7196 20.039L37.1498 23.008ZM41.5658 22.368L44.5022 21.7534L44.2142 20.3774L41.2778 20.992L38.3415 21.6066L38.6295 22.9826L41.5658 22.368ZM41.2778 20.992L42.7663 18.3873C42.1291 18.0232 41.4641 17.8922 41.0301 17.8302L40.6058 20.8L40.1816 23.7698C40.2329 23.7772 40.2246 23.7791 40.1737 23.7646C40.1297 23.752 39.9831 23.7074 39.7894 23.5967L41.2778 20.992ZM40.6058 20.8L41.062 17.8349C40.6778 17.7758 40.2748 17.736 39.8698 17.736V20.736V23.736C39.8915 23.736 39.9792 23.7389 40.1497 23.7651L40.6058 20.8ZM39.8698 20.736V17.736C38.8446 17.736 37.7541 17.9581 36.7639 18.5835L38.3658 21.12L39.9678 23.6565C39.8848 23.7089 39.8175 23.7312 39.788 23.7388C39.7622 23.7453 39.7839 23.736 39.8698 23.736V20.736ZM38.3658 21.12L36.7017 18.6238C35.9779 19.1064 35.3486 19.7372 34.884 20.5269L37.4698 22.048L40.0556 23.5691C40.0482 23.5817 40.0402 23.5935 40.0321 23.6041C40.0241 23.6147 40.0171 23.6226 40.012 23.6278C40.0015 23.6387 40.004 23.6335 40.0299 23.6162L38.3658 21.12ZM37.4698 22.048L34.8551 20.5772C34.5101 21.1906 34.2185 21.9397 34.1575 22.7943L37.1498 23.008L40.1422 23.2217C40.1239 23.4789 40.0456 23.5881 40.0846 23.5188L37.4698 22.048ZM49.7136 18.848L47.0391 17.4888L46.5811 18.3901L46.762 19.3847L49.7136 18.848ZM50.7056 16.896V13.896H48.865L48.0311 15.5368L50.7056 16.896ZM55.4736 16.896H58.4736V13.896H55.4736V16.896ZM55.4736 18.272H52.4736V19.8775L53.8095 20.7681L55.4736 18.272ZM55.7616 18.464L54.0975 20.9601L56.0464 22.2594L57.7796 20.6838L55.7616 18.464ZM56.7216 17.728L58.4156 20.2039L58.4289 20.1949L58.442 20.1857L56.7216 17.728ZM65.0416 18.784L62.5288 20.4228L64.9193 24.0882L67.4762 20.5369L65.0416 18.784ZM66.7696 17.28L68.3339 19.8398L68.3437 19.8339L68.3534 19.8279L66.7696 17.28ZM74.3536 18.176L76.6031 16.1911V16.1911L74.3536 18.176ZM75.7936 26.848H72.7936V27.1596L72.8576 27.4646L75.7936 26.848ZM76.4656 30.048L79.3022 31.0245L79.5717 30.2417L79.4016 29.4314L76.4656 30.048ZM75.7936 32V35H77.9336L78.6302 32.9765L75.7936 32ZM70.0336 32H67.0336V35H70.0336V32ZM69.4896 21.728L67.1033 23.5461L67.1519 23.6099L67.2038 23.6709L69.4896 21.728ZM66.0336 32V35H69.0336V32H66.0336ZM60.2736 32H57.2736V35H60.2736V32ZM59.7296 21.76L57.3433 23.5781L57.3919 23.6419L57.4438 23.7029L59.7296 21.76ZM58.0976 21.088V18.088H57.6482L57.2186 18.2197L58.0976 21.088ZM56.1136 21.696L55.2346 18.8277L53.1136 19.4776V21.696H56.1136ZM56.1136 32V35H59.1136V32H56.1136ZM50.3536 32H47.3536V35H50.3536V32ZM50.3536 22.368H53.3536V22.0975L53.3052 21.8313L50.3536 22.368ZM49.7136 18.848L52.3881 20.2071L53.3801 18.2551L50.7056 16.896L48.0311 15.5368L47.0391 17.4888L49.7136 18.848ZM50.7056 16.896V19.896H55.4736V16.896V13.896H50.7056V16.896ZM55.4736 16.896H52.4736V18.272H55.4736H58.4736V16.896H55.4736ZM55.4736 18.272L53.8095 20.7681L54.0975 20.9601L55.7616 18.464L57.4257 15.9678L57.1377 15.7758L55.4736 18.272ZM55.7616 18.464L57.7796 20.6838C57.873 20.5989 58.0696 20.4407 58.4156 20.2039L56.7216 17.728L55.0275 15.2521C54.5629 15.57 54.1195 15.9024 53.7436 16.2442L55.7616 18.464ZM56.7216 17.728L58.442 20.1857C58.6361 20.0498 58.9288 19.8875 59.3546 19.7203L58.2576 16.928L57.1606 14.1357C56.3918 14.4378 55.6604 14.8089 55.0012 15.2703L56.7216 17.728ZM58.2576 16.928L59.3546 19.7203C59.5503 19.6434 59.8419 19.576 60.2736 19.576V16.576V13.576C59.2119 13.576 58.1596 13.7433 57.1606 14.1357L58.2576 16.928ZM60.2736 16.576V19.576C61.7803 19.576 62.2694 20.0251 62.5288 20.4228L65.0416 18.784L67.5544 17.1452C65.8938 14.5989 63.2042 13.576 60.2736 13.576V16.576ZM65.0416 18.784L67.4762 20.5369C67.5576 20.4239 67.7888 20.173 68.3339 19.8398L66.7696 17.28L65.2052 14.7202C64.2144 15.3257 63.2936 16.0775 62.607 17.0311L65.0416 18.784ZM66.7696 17.28L68.3534 19.8279C68.4881 19.7441 68.9495 19.544 70.0336 19.544V16.544V13.544C68.3443 13.544 66.6297 13.8346 65.1858 14.7321L66.7696 17.28ZM70.0336 16.544V19.544C71.387 19.544 71.8829 19.9102 72.1041 20.1609L74.3536 18.176L76.6031 16.1911C74.9043 14.2658 72.5202 13.544 70.0336 13.544V16.544ZM74.3536 18.176L72.1041 20.1609C72.4324 20.5329 72.7936 21.2602 72.7936 22.752H75.7936H78.7936C78.7936 20.3185 78.1948 17.9951 76.6031 16.1911L74.3536 18.176ZM75.7936 22.752H72.7936V26.848H75.7936H78.7936V22.752H75.7936ZM75.7936 26.848L72.8576 27.4646L73.5296 30.6646L76.4656 30.048L79.4016 29.4314L78.7296 26.2314L75.7936 26.848ZM76.4656 30.048L73.629 29.0715L72.957 31.0235L75.7936 32L78.6302 32.9765L79.3022 31.0245L76.4656 30.048ZM75.7936 32V29H70.0336V32V35H75.7936V32ZM70.0336 32H73.0336V23.584H70.0336H67.0336V32H70.0336ZM70.0336 23.584H73.0336C73.0336 22.3734 72.7673 20.952 71.7754 19.7851L69.4896 21.728L67.2038 23.6709C67.1414 23.5976 67.0968 23.5274 67.0664 23.4689C67.0365 23.4114 67.0231 23.3708 67.0187 23.3558C67.0115 23.3312 67.0336 23.3944 67.0336 23.584H70.0336ZM69.4896 21.728L71.8759 19.9099C70.793 18.4886 69.2101 18.056 67.8576 18.056V21.056V24.056C67.9404 24.056 67.8569 24.0695 67.6833 23.998C67.4861 23.9168 67.2699 23.7647 67.1033 23.5461L69.4896 21.728ZM67.8576 21.056V18.056C66.532 18.056 65.3532 18.5818 64.4563 19.4787L66.5776 21.6L68.6989 23.7213C68.6372 23.7831 68.5196 23.878 68.343 23.953C68.1638 24.0291 67.9916 24.056 67.8576 24.056V21.056ZM66.5776 21.6L64.4563 19.4787C63.4823 20.4526 63.0336 21.6972 63.0336 22.976H66.0336H69.0336C69.0336 23.0294 69.0239 23.1561 68.9595 23.319C68.8932 23.4865 68.7959 23.6243 68.6989 23.7213L66.5776 21.6ZM66.0336 22.976H63.0336V32H66.0336H69.0336V22.976H66.0336ZM66.0336 32V29H60.2736V32V35H66.0336V32ZM60.2736 32H63.2736V23.616H60.2736H57.2736V32H60.2736ZM60.2736 23.616H63.2736C63.2736 22.4054 63.0074 20.984 62.0154 19.8171L59.7296 21.76L57.4438 23.7029C57.3814 23.6296 57.3368 23.5594 57.3064 23.5009C57.2765 23.4434 57.2631 23.4028 57.2587 23.3878C57.2515 23.3632 57.2736 23.4264 57.2736 23.616H60.2736ZM59.7296 21.76L62.1159 19.9419C61.033 18.5206 59.4501 18.088 58.0976 18.088V21.088V24.088C58.1804 24.088 58.0969 24.1015 57.9233 24.03C57.7261 23.9488 57.5098 23.7967 57.3433 23.5781L59.7296 21.76ZM58.0976 21.088L57.2186 18.2197L55.2346 18.8277L56.1136 21.696L56.9926 24.5643L58.9766 23.9563L58.0976 21.088ZM56.1136 21.696H53.1136V32H56.1136H59.1136V21.696H56.1136ZM56.1136 32V29H50.3536V32V35H56.1136V32ZM50.3536 32H53.3536V22.368H50.3536H47.3536V32H50.3536ZM50.3536 22.368L53.3052 21.8313L52.6652 18.3113L49.7136 18.848L46.762 19.3847L47.402 22.9047L50.3536 22.368ZM80.6901 30.464L82.6536 28.1958L80.6901 30.464ZM80.6901 18.432L82.634 20.717L82.6439 20.7086L82.6536 20.7002L80.6901 18.432ZM92.7861 18.432L90.7715 20.655L90.7897 20.6714L90.8081 20.6876L92.7861 18.432ZM92.7861 30.464L90.7887 28.2256L90.7801 28.2333L90.7715 28.241L92.7861 30.464ZM88.5621 27.2L91.2092 28.6118L91.2187 28.5939L91.228 28.5759L88.5621 27.2ZM88.5621 21.696L91.2092 20.2842V20.2842L88.5621 21.696ZM84.8501 21.696L82.24 20.217L82.2211 20.2504L82.203 20.2842L84.8501 21.696ZM84.8501 27.2L82.1842 28.5759L82.2111 28.628L82.24 28.679L84.8501 27.2ZM86.7381 32.32V29.32C84.5849 29.32 83.3624 28.8094 82.6536 28.1958L80.6901 30.464L78.7266 32.7322C80.8764 34.5933 83.6859 35.32 86.7381 35.32V32.32ZM80.6901 30.464L82.6536 28.1958C82.142 27.7529 81.5461 26.7655 81.5461 24.448H78.5461H75.5461C75.5461 27.6772 76.3795 30.7004 78.7266 32.7322L80.6901 30.464ZM78.5461 24.448H81.5461C81.5461 22.0953 82.1485 21.13 82.634 20.717L80.6901 18.432L78.7462 16.147C76.373 18.166 75.5461 21.2114 75.5461 24.448H78.5461ZM80.6901 18.432L82.6536 20.7002C83.3624 20.0866 84.5849 19.576 86.7381 19.576V16.576V13.576C83.6859 13.576 80.8764 14.3027 78.7266 16.1638L80.6901 18.432ZM86.7381 16.576V19.576C88.989 19.576 90.161 20.1017 90.7715 20.655L92.7861 18.432L94.8007 16.209C92.6805 14.2877 89.8205 13.576 86.7381 13.576V16.576ZM92.7861 18.432L90.8081 20.6876C91.2712 21.0937 91.8661 22.0699 91.8661 24.448H94.8661H97.8661C97.8661 21.2368 97.0743 18.2023 94.7641 16.1764L92.7861 18.432ZM94.8661 24.448H91.8661C91.8661 26.7908 91.2777 27.7893 90.7887 28.2256L92.7861 30.464L94.7835 32.7024C97.0678 30.6641 97.8661 27.6519 97.8661 24.448H94.8661ZM92.7861 30.464L90.7715 28.241C90.161 28.7943 88.989 29.32 86.7381 29.32V32.32V35.32C89.8205 35.32 92.6805 34.6083 94.8007 32.687L92.7861 30.464ZM86.7381 28.16V31.16C88.4477 31.16 90.2294 30.4488 91.2092 28.6118L88.5621 27.2L85.915 25.7882C86.0105 25.6093 86.1948 25.4011 86.4529 25.2652C86.6814 25.145 86.8181 25.16 86.7381 25.16V28.16ZM88.5621 27.2L91.228 28.5759C91.8798 27.3129 92.0741 25.8517 92.0741 24.448H89.0741H86.0741C86.0741 25.3909 85.927 25.7644 85.8962 25.8241L88.5621 27.2ZM89.0741 24.448H92.0741C92.0741 23.0431 91.8861 21.5535 91.2092 20.2842L88.5621 21.696L85.915 23.1078C85.9069 23.0926 85.9523 23.1738 85.9967 23.4127C86.0406 23.6484 86.0741 23.9864 86.0741 24.448H89.0741ZM88.5621 21.696L91.2092 20.2842C90.2294 18.4472 88.4477 17.736 86.7381 17.736V20.736V23.736C86.8181 23.736 86.6814 23.751 86.4529 23.6308C86.1948 23.4949 86.0105 23.2867 85.915 23.1078L88.5621 21.696ZM86.7381 20.736V17.736C85.0394 17.736 83.2595 18.4179 82.24 20.217L84.8501 21.696L87.4602 23.175C87.4187 23.2481 87.3535 23.3397 87.2584 23.4318C87.1625 23.5246 87.057 23.5977 86.9538 23.6502C86.7493 23.7542 86.6389 23.736 86.7381 23.736V20.736ZM84.8501 21.696L82.203 20.2842C81.5261 21.5535 81.3381 23.0431 81.3381 24.448H84.3381H87.3381C87.3381 23.9864 87.3716 23.6484 87.4155 23.4127C87.4599 23.1738 87.5053 23.0926 87.4972 23.1078L84.8501 21.696ZM84.3381 24.448H81.3381C81.3381 25.8517 81.5323 27.3129 82.1842 28.5759L84.8501 27.2L87.516 25.8241C87.4852 25.7644 87.3381 25.3909 87.3381 24.448H84.3381ZM84.8501 27.2L82.24 28.679C83.2595 30.4781 85.0394 31.16 86.7381 31.16V28.16V25.16C86.6389 25.16 86.7493 25.1418 86.9538 25.2458C87.057 25.2983 87.1625 25.3714 87.2584 25.4642C87.3535 25.5563 87.4187 25.6479 87.4602 25.721L84.8501 27.2ZM97.6043 32H94.6043V35H97.6043V32ZM97.6043 21.984H100.604V21.6724L100.54 21.3674L97.6043 21.984ZM96.9323 18.784L94.1008 17.7929L93.8245 18.5822L93.9964 19.4006L96.9323 18.784ZM97.6043 16.864V13.864H95.4759L94.7728 15.8729L97.6043 16.864ZM101.956 16.864L104.22 14.8955L103.323 13.864H101.956V16.864ZM102.596 17.6L100.333 19.5685L101.948 21.4259L104.085 20.2047L102.596 17.6ZM103.044 17.344L104.533 19.9487L104.601 19.9099L104.667 19.8675L103.044 17.344ZM104.292 16.8L103.41 13.9327L103.394 13.9376L103.378 13.9427L104.292 16.8ZM107.492 16.64L107.047 19.6068V19.6068L107.492 16.64ZM108.484 16.896L110.422 14.6058L110.105 14.3371L109.726 14.1649L108.484 16.896ZM110.564 18.656L113.239 20.0143L114.314 17.8986L112.502 16.3658L110.564 18.656ZM108.484 22.752L107.33 25.5212L109.899 26.5915L111.159 24.1103L108.484 22.752ZM104.26 20.992L105.414 18.2228L104.377 17.7907L103.312 18.1459L104.26 20.992ZM103.3 21.312L102.352 18.4659L100.3 19.1497V21.312H103.3ZM103.3 32V35H106.3V32H103.3ZM97.6043 32H100.604V21.984H97.6043H94.6043V32H97.6043ZM97.6043 21.984L100.54 21.3674L99.8683 18.1674L96.9323 18.784L93.9964 19.4006L94.6684 22.6006L97.6043 21.984ZM96.9323 18.784L99.7639 19.7751L100.436 17.8551L97.6043 16.864L94.7728 15.8729L94.1008 17.7929L96.9323 18.784ZM97.6043 16.864V19.864H101.956V16.864V13.864H97.6043V16.864ZM101.956 16.864L99.6925 18.8325L100.333 19.5685L102.596 17.6L104.86 15.6315L104.22 14.8955L101.956 16.864ZM102.596 17.6C104.085 20.2047 104.085 20.2047 104.085 20.2047C104.085 20.2047 104.085 20.2047 104.085 20.2047C104.085 20.2047 104.085 20.2047 104.085 20.2047C104.085 20.2047 104.085 20.2047 104.085 20.2047C104.085 20.2047 104.085 20.2047 104.085 20.2047C104.085 20.2047 104.085 20.2047 104.085 20.2047C104.085 20.2047 104.085 20.2047 104.085 20.2047C104.085 20.2046 104.085 20.2047 104.085 20.2046C104.085 20.2045 104.085 20.2045 104.085 20.2045C104.086 20.2042 104.085 20.2045 104.086 20.2042C104.087 20.2037 104.086 20.2043 104.087 20.2037C104.088 20.2029 104.086 20.2043 104.087 20.2035C104.087 20.2034 104.087 20.2034 104.087 20.2034C104.087 20.2034 104.087 20.2033 104.087 20.2033C104.087 20.2033 104.087 20.2033 104.087 20.2032C104.087 20.2032 104.087 20.2032 104.087 20.2032C104.088 20.203 104.088 20.2027 104.089 20.2025C104.09 20.2015 104.088 20.2031 104.089 20.2021C104.09 20.2015 104.089 20.2025 104.09 20.2019C104.09 20.2018 104.09 20.2018 104.09 20.2018C104.09 20.2017 104.09 20.2017 104.09 20.2017C104.092 20.2008 104.089 20.202 104.091 20.2012C104.092 20.2004 104.09 20.2015 104.092 20.2007C104.105 20.1933 104.086 20.2039 104.101 20.1957C104.118 20.1857 104.094 20.1994 104.113 20.1887C104.126 20.1813 104.107 20.1921 104.12 20.1845C104.123 20.1826 104.119 20.1852 104.122 20.1833C104.124 20.1821 104.121 20.184 104.123 20.1828C104.123 20.1827 104.124 20.1826 104.124 20.1825C104.124 20.1824 104.124 20.1823 104.124 20.1822C104.126 20.1809 104.124 20.1822 104.126 20.181C104.129 20.1796 104.126 20.1811 104.129 20.1797C104.138 20.1744 104.137 20.1747 104.148 20.1687C104.16 20.1619 104.157 20.1632 104.171 20.1557C104.175 20.1529 104.169 20.1568 104.174 20.154C104.174 20.1538 104.174 20.1537 104.174 20.1535C104.175 20.1534 104.175 20.1532 104.175 20.1531C104.175 20.1529 104.176 20.1528 104.176 20.1526C104.176 20.1525 104.176 20.1523 104.177 20.1522C104.177 20.1522 104.183 20.1485 104.183 20.1485C104.187 20.1465 104.193 20.1429 104.197 20.1407C104.376 20.0385 104.139 20.1736 104.337 20.0607C104.348 20.0545 104.368 20.0427 104.381 20.0357C104.405 20.0219 104.379 20.0365 104.404 20.0225C104.416 20.0152 104.415 20.0162 104.428 20.0087C104.428 20.0087 104.431 20.007 104.431 20.007C104.431 20.0067 104.432 20.0064 104.432 20.0061C104.433 20.0058 104.433 20.0055 104.434 20.0052C104.444 19.9996 104.43 20.0073 104.44 20.0017C104.441 20.0014 104.441 20.0011 104.442 20.0008C104.442 20.0005 104.443 20.0002 104.443 19.9999C104.444 19.9996 104.444 19.9993 104.445 19.999C104.445 19.9987 104.446 19.9984 104.446 19.9981C104.451 19.9957 104.445 19.9987 104.45 19.9963C104.453 19.9944 104.449 19.9964 104.453 19.9945C104.454 19.9935 104.464 19.9882 104.465 19.9872C104.493 19.9714 104.451 19.9955 104.479 19.9797C104.5 19.9675 104.483 19.9769 104.505 19.9645C104.52 19.9562 104.504 19.965 104.519 19.9567C104.552 19.9375 104.499 19.9679 104.533 19.9487L103.044 17.344L101.556 14.7393C101.466 14.7904 101.235 14.9228 101.22 14.9313C101.148 14.9725 101.189 14.9487 101.136 14.9793C101.131 14.9818 101.134 14.9806 101.129 14.983C101.127 14.9844 101.129 14.9834 101.126 14.9847C101.126 14.985 101.126 14.9852 101.125 14.9855C101.124 14.9859 101.125 14.9855 101.124 14.9859C101.123 14.9865 101.125 14.9857 101.124 14.9863C101.112 14.9931 101.131 14.9824 101.119 14.989C101.118 14.9894 101.115 14.991 101.115 14.9913C101.112 14.9931 101.112 14.9931 101.11 14.9943C101.11 14.9943 101.109 14.9944 101.109 14.9945C101.109 14.9945 101.109 14.9945 101.109 14.9946C101.109 14.9946 101.109 14.9946 101.109 14.9946C101.109 14.9947 101.109 14.9947 101.109 14.9947C101.108 14.995 101.109 14.9946 101.109 14.9949C101.109 14.9949 101.108 14.995 101.108 14.995C101.108 14.9951 101.108 14.9952 101.108 14.9952C101.108 14.9952 101.108 14.9952 101.108 14.9953C101.108 14.9953 101.108 14.9953 101.108 14.9953C101.108 14.9953 101.108 14.9953 101.108 14.9953C101.108 14.9953 101.108 14.9953 102.596 17.6ZM103.044 17.344L104.667 19.8675C104.65 19.8782 104.68 19.8574 104.779 19.8141C104.876 19.772 105.015 19.7185 105.207 19.6573L104.292 16.8L103.378 13.9427C102.721 14.153 102.03 14.4297 101.422 14.8205L103.044 17.344ZM104.292 16.8L105.175 19.6673C105.382 19.6034 105.715 19.544 106.212 19.544V16.544V13.544C105.259 13.544 104.312 13.6553 103.41 13.9327L104.292 16.8ZM106.212 16.544V19.544C106.488 19.544 106.766 19.5647 107.047 19.6068L107.492 16.64L107.937 13.6732C107.365 13.5873 106.79 13.544 106.212 13.544V16.544ZM107.492 16.64L107.047 19.6068C107.183 19.6272 107.268 19.6458 107.311 19.6568C107.331 19.6621 107.335 19.6638 107.326 19.6606C107.317 19.6576 107.287 19.6473 107.243 19.6271L108.484 16.896L109.726 14.1649C109.125 13.8917 108.481 13.7547 107.937 13.6732L107.492 16.64ZM108.484 16.896L106.547 19.1862L108.627 20.9462L110.564 18.656L112.502 16.3658L110.422 14.6058L108.484 16.896ZM110.564 18.656L107.889 17.2977L105.809 21.3937L108.484 22.752L111.159 24.1103L113.239 20.0143L110.564 18.656ZM108.484 22.752L109.638 19.9828L105.414 18.2228L104.26 20.992L103.106 23.7612L107.33 25.5212L108.484 22.752ZM104.26 20.992L103.312 18.1459L102.352 18.4659L103.3 21.312L104.249 24.1581L105.209 23.8381L104.26 20.992ZM103.3 21.312H100.3V32H103.3H106.3V21.312H103.3ZM103.3 32V29H97.6043V32V35H103.3V32ZM115.359 15.968L113.229 18.081L115.359 20.2274L117.488 18.081L115.359 15.968ZM111.295 11.872L109.173 9.75068L107.06 11.8637L109.165 13.985L111.295 11.872ZM115.359 7.808L117.48 5.68668L115.359 3.56536L113.237 5.68668L115.359 7.808ZM119.423 11.872L121.552 13.985L123.657 11.8637L121.544 9.75068L119.423 11.872ZM112.479 32H109.479V35H112.479V32ZM112.479 21.408H115.479V21.0208L115.38 20.6463L112.479 21.408ZM111.807 18.848L108.956 17.9133L108.68 18.754L108.905 19.6097L111.807 18.848ZM112.447 16.896V13.896H110.273L109.596 15.9613L112.447 16.896ZM118.239 16.896H121.239V13.896H118.239V16.896ZM118.239 32V35H121.239V32H118.239ZM115.359 15.968L117.488 13.855L113.424 9.75901L111.295 11.872L109.165 13.985L113.229 18.081L115.359 15.968ZM111.295 11.872L113.416 13.9933L117.48 9.92932L115.359 7.808L113.237 5.68668L109.173 9.75068L111.295 11.872ZM115.359 7.808L113.237 9.92932L117.301 13.9933L119.423 11.872L121.544 9.75068L117.48 5.68668L115.359 7.808ZM119.423 11.872L117.293 9.75901L113.229 13.855L115.359 15.968L117.488 18.081L121.552 13.985L119.423 11.872ZM112.479 32H115.479V21.408H112.479H109.479V32H112.479ZM112.479 21.408L115.38 20.6463L114.708 18.0863L111.807 18.848L108.905 19.6097L109.577 22.1697L112.479 21.408ZM111.807 18.848L114.657 19.7827L115.297 17.8307L112.447 16.896L109.596 15.9613L108.956 17.9133L111.807 18.848ZM112.447 16.896V19.896H118.239V16.896V13.896H112.447V16.896ZM118.239 16.896H115.239V32H118.239H121.239V16.896H118.239ZM118.239 32V29H112.479V32V35H118.239V32ZM123.422 31.936L122.403 34.7577L122.45 34.7744L122.497 34.7897L123.422 31.936ZM121.662 25.12L124.054 26.9316V26.9316L121.662 25.12ZM123.838 23.552L124.885 26.3637L123.838 23.552ZM129.438 23.424L128.181 26.1479L128.225 26.1681L128.269 26.1869L129.438 23.424ZM130.878 24.16L129.276 26.6965L131.149 27.8792L132.831 26.4378L130.878 24.16ZM131.102 23.968L133.055 26.2458L134.102 25.3478V23.968H131.102ZM130.942 22.368L133.853 21.6404V21.6404L130.942 22.368ZM130.206 21.408L128.642 23.9678L128.695 24.0003L128.749 24.0305L130.206 21.408ZM125.886 21.28L126.321 24.2484L126.35 24.2441L126.38 24.2392L125.886 21.28ZM123.454 21.792L124.222 24.6921L124.25 24.6846L124.279 24.6766L123.454 21.792ZM121.822 22.368H118.822V27.3507L123.226 25.0194L121.822 22.368ZM121.822 17.568L120.819 14.7407L118.822 15.4492V17.568H121.822ZM124.638 16.928L125.106 19.8913L125.127 19.888L125.148 19.8844L124.638 16.928ZM133.726 17.344L132.513 20.0876L132.544 20.1016L132.576 20.1148L133.726 17.344ZM136.158 19.424L133.513 20.839L133.52 20.852L133.527 20.8649L136.158 19.424ZM136.894 26.912H133.894V27.2062L133.951 27.4947L136.894 26.912ZM137.534 30.144L140.376 31.1071L140.633 30.3478L140.477 29.5613L137.534 30.144ZM136.894 32.032V35.032H139.045L139.736 32.9951L136.894 32.032ZM131.422 32.032H128.422V35.032H131.422V32.032ZM131.422 30.464H134.422V28.6099L132.764 27.7807L131.422 30.464ZM131.102 30.304L132.444 27.6207L130.51 26.6537L128.981 28.1827L131.102 30.304ZM130.206 31.04L132.006 33.44L130.206 31.04ZM128.51 31.936L129.536 34.7554L129.573 34.7418L129.61 34.7272L128.51 31.936ZM130.174 27.968L129.447 25.0576L129.429 25.0621L129.411 25.0668L130.174 27.968ZM131.102 27.68L132.321 30.4214L134.102 29.6296V27.68H131.102ZM130.494 26.272L128.83 28.7682L128.861 28.7887L128.892 28.8085L130.494 26.272ZM127.326 27.872L125.662 30.3682H125.662L127.326 27.872ZM125.982 32.32V29.32C125.346 29.32 124.809 29.2317 124.348 29.0823L123.422 31.936L122.497 34.7897C123.615 35.1523 124.784 35.32 125.982 35.32V32.32ZM123.422 31.936L124.441 29.1143C124.244 29.0433 124.126 28.9505 124.013 28.7918L121.566 30.528L119.12 32.2642C119.946 33.4282 121.064 34.2741 122.403 34.7577L123.422 31.936ZM121.566 30.528L124.013 28.7918C124.032 28.8186 123.862 28.5935 123.862 27.776H120.862H117.862C117.862 29.3052 118.162 30.9147 119.12 32.2642L121.566 30.528ZM120.862 27.776H123.862C123.862 27.2238 123.992 27.0129 124.054 26.9316L121.662 25.12L119.271 23.3084C118.266 24.6351 117.862 26.1949 117.862 27.776H120.862ZM121.662 25.12L124.054 26.9316C124.206 26.7303 124.442 26.5284 124.885 26.3637L123.838 23.552L122.792 20.7403C121.4 21.2582 120.185 22.1017 119.271 23.3084L121.662 25.12ZM123.838 23.552L124.885 26.3637C125.414 26.1668 126.086 26.04 126.942 26.04V23.04V20.04C125.495 20.04 124.098 20.2545 122.792 20.7403L123.838 23.552ZM126.942 23.04V26.04C127.389 26.04 127.716 26.0663 127.942 26.1011C128.178 26.1373 128.234 26.1722 128.181 26.1479L129.438 23.424L130.696 20.7001C129.545 20.169 128.188 20.04 126.942 20.04V23.04ZM129.438 23.424L128.269 26.1869C128.71 26.3733 129.039 26.5464 129.276 26.6965L130.878 24.16L132.48 21.6235C131.907 21.2616 131.276 20.944 130.607 20.6611L129.438 23.424ZM130.878 24.16L132.831 26.4378L133.055 26.2458L131.102 23.968L129.15 21.6902L128.926 21.8822L130.878 24.16ZM131.102 23.968H134.102C134.102 23.1832 134.039 22.386 133.853 21.6404L130.942 22.368L128.032 23.0956C128.059 23.2034 128.102 23.4728 128.102 23.968H131.102ZM130.942 22.368L133.853 21.6404C133.545 20.4093 132.774 19.4027 131.663 18.7855L130.206 21.408L128.749 24.0305C128.615 23.9555 128.447 23.8277 128.298 23.6333C128.149 23.4389 128.069 23.2441 128.032 23.0956L130.942 22.368ZM130.206 21.408L131.771 18.8482C130.672 18.1766 129.396 18.056 128.414 18.056V21.056V24.056C128.546 24.056 128.651 24.0608 128.733 24.0676C128.816 24.0745 128.867 24.0828 128.892 24.0877C128.918 24.0928 128.906 24.0922 128.865 24.0778C128.825 24.0634 128.745 24.0309 128.642 23.9678L130.206 21.408ZM128.414 21.056V18.056C127.437 18.056 126.428 18.1483 125.393 18.3208L125.886 21.28L126.38 24.2392C127.136 24.1131 127.813 24.056 128.414 24.056V21.056ZM125.886 21.28L125.452 18.3116C124.463 18.4563 123.521 18.653 122.63 18.9074L123.454 21.792L124.279 24.6766C124.881 24.5044 125.56 24.3597 126.321 24.2484L125.886 21.28ZM123.454 21.792L122.687 18.8919C121.89 19.1027 121.085 19.3639 120.419 19.7166L121.822 22.368L123.226 25.0194C123.226 25.0194 123.232 25.0164 123.244 25.0105C123.257 25.0046 123.275 24.9965 123.298 24.9865C123.347 24.966 123.413 24.9399 123.501 24.909C123.678 24.8463 123.916 24.7733 124.222 24.6921L123.454 21.792ZM121.822 22.368H124.822V17.568H121.822H118.822V22.368H121.822ZM121.822 17.568L122.826 20.3953C123.23 20.2517 123.958 20.0725 125.106 19.8913L124.638 16.928L124.17 13.9647C122.886 14.1675 121.737 14.415 120.819 14.7407L121.822 17.568ZM124.638 16.928L125.148 19.8844C126.163 19.7094 127.495 19.608 129.182 19.608V16.608V13.608C127.285 13.608 125.589 13.7199 124.129 13.9716L124.638 16.928ZM129.182 16.608V19.608C130.901 19.608 131.944 19.8359 132.513 20.0876L133.726 17.344L134.94 14.6004C133.29 13.8708 131.304 13.608 129.182 13.608V16.608ZM133.726 17.344L132.576 20.1148C133.185 20.3676 133.405 20.6369 133.513 20.839L136.158 19.424L138.804 18.009C137.93 16.3764 136.529 15.2591 134.876 14.5732L133.726 17.344ZM136.158 19.424L133.527 20.8649C133.726 21.2279 133.894 21.7854 133.894 22.656H136.894H139.894C139.894 21.0092 139.572 19.4121 138.79 17.9831L136.158 19.424ZM136.894 22.656H133.894V26.912H136.894H139.894V22.656H136.894ZM136.894 26.912L133.951 27.4947L134.591 30.7267L137.534 30.144L140.477 29.5613L139.837 26.3293L136.894 26.912ZM137.534 30.144L134.693 29.1809L134.053 31.0689L136.894 32.032L139.736 32.9951L140.376 31.1071L137.534 30.144ZM136.894 32.032V29.032H131.422V32.032V35.032H136.894V32.032ZM131.422 32.032H134.422V30.464H131.422H128.422V32.032H131.422ZM131.422 30.464L132.764 27.7807L132.444 27.6207L131.102 30.304L129.761 32.9873L130.081 33.1473L131.422 30.464ZM131.102 30.304L128.981 28.1827C128.993 28.1706 128.959 28.2051 128.846 28.2978C128.741 28.3842 128.597 28.4974 128.406 28.64L130.206 31.04L132.006 33.44C132.445 33.1114 132.891 32.758 133.224 32.4253L131.102 30.304ZM130.206 31.04L128.406 28.64C128.263 28.7472 127.96 28.9284 127.411 29.1448L128.51 31.936L129.61 34.7272C130.469 34.389 131.296 33.9728 132.006 33.44L130.206 31.04ZM128.51 31.936L127.485 29.1166C127.194 29.2225 126.716 29.32 125.982 29.32V32.32V35.32C127.211 35.32 128.419 35.1615 129.536 34.7554L128.51 31.936ZM128.702 28.128V31.128C129.447 31.128 130.21 31.0607 130.938 30.8692L130.174 27.968L129.411 25.0668C129.328 25.0886 129.109 25.128 128.702 25.128V28.128ZM130.174 27.968L130.902 30.8784C131.356 30.7649 131.878 30.6184 132.321 30.4214L131.102 27.68L129.884 24.9386C129.936 24.9154 129.933 24.9211 129.837 24.9508C129.751 24.9776 129.624 25.0134 129.447 25.0576L130.174 27.968ZM131.102 27.68H134.102V27.072H131.102H128.102V27.68H131.102ZM131.102 27.072H134.102C134.102 25.1886 132.735 24.1389 132.096 23.7355L130.494 26.272L128.892 28.8085C128.892 28.808 128.883 28.8028 128.869 28.7923C128.855 28.7819 128.833 28.765 128.805 28.7409C128.751 28.6947 128.661 28.6096 128.562 28.4792C128.351 28.202 128.102 27.7164 128.102 27.072H131.102ZM130.494 26.272L132.158 23.7758C131.024 23.0197 129.682 22.888 128.67 22.888V25.888V28.888C128.803 28.888 128.907 28.8931 128.987 28.9002C129.067 28.9073 129.114 28.9157 129.132 28.9196C129.152 28.9237 129.131 28.9209 129.081 28.9017C129.031 28.8824 128.941 28.8423 128.83 28.7682L130.494 26.272ZM128.67 25.888V22.888C127.834 22.888 126.671 23.0185 125.648 23.7386C124.432 24.5942 123.942 25.8922 123.942 27.104H126.942H129.942C129.942 27.2558 129.915 27.533 129.762 27.8563C129.601 28.1948 129.36 28.4631 129.101 28.6454C128.654 28.9601 128.355 28.888 128.67 28.888V25.888ZM126.942 27.104H123.942C123.942 28.3193 124.47 29.5731 125.662 30.3682L127.326 27.872L128.99 25.3758C129.263 25.5577 129.535 25.8365 129.722 26.2104C129.902 26.5718 129.942 26.8979 129.942 27.104H126.942ZM127.326 27.872L125.662 30.3682C126.724 31.0757 127.991 31.128 128.702 31.128V28.128V25.128C128.6 25.128 128.525 25.1247 128.472 25.1207C128.419 25.1166 128.401 25.1127 128.411 25.1146C128.42 25.1162 128.477 25.1272 128.568 25.1597C128.658 25.1918 128.81 25.2558 128.99 25.3758L127.326 27.872Z" fill="white" mask="url(#path-1-outside-1_17_2047)"/>
</svg>
