<?xml version="1.0" encoding="UTF-8" standalone="no"?>
<!-- Created with Inkscape (http://www.inkscape.org/) -->

<svg
   version="1.1"
   id="svg1"
   width="78.054993"
   height="70.349579"
   viewBox="0 0 78.054993 70.349578"
   sodipodi:docname="logotype6 Modified.svg"
   xml:space="preserve"
   inkscape:version="1.4.2 (f4327f4, 2025-05-13)"
   xmlns:inkscape="http://www.inkscape.org/namespaces/inkscape"
   xmlns:sodipodi="http://sodipodi.sourceforge.net/DTD/sodipodi-0.dtd"
   xmlns="http://www.w3.org/2000/svg"
   xmlns:svg="http://www.w3.org/2000/svg"><sodipodi:namedview
     id="namedview1"
     pagecolor="#ffffff"
     bordercolor="#000000"
     borderopacity="0.25"
     inkscape:showpageshadow="2"
     inkscape:pageopacity="0.0"
     inkscape:pagecheckerboard="0"
     inkscape:deskcolor="#d1d1d1"
     inkscape:zoom="8.331219"
     inkscape:cx="21.965573"
     inkscape:cy="39.910126"
     inkscape:window-width="1920"
     inkscape:window-height="1111"
     inkscape:window-x="-9"
     inkscape:window-y="-9"
     inkscape:window-maximized="1"
     inkscape:current-layer="g1"
     showguides="false" /><defs
     id="defs1"><inkscape:path-effect
       effect="fillet_chamfer"
       id="path-effect4"
       is_visible="true"
       lpeversion="1"
       nodesatellites_param="F,0,0,1,0,0,0,1 @ F,0,0,1,0,0,0,1 @ F,0,0,1,0,0,0,1 @ F,0,0,1,0,0,0,1 @ F,0,0,1,0,0,0,1 @ F,0,0,1,0,0,0,1 @ F,0,0,1,0,0,0,1 @ F,0,0,1,0,0,0,1 @ F,0,0,1,0,0,0,1 @ F,0,0,1,0,0,0,1 @ F,0,0,1,0,0,0,1 @ F,0,0,1,0,0,0,1 @ F,0,0,1,0,0,0,1 @ F,0,0,1,0,0,0,1 @ F,0,0,1,0,0,0,1 @ F,0,0,1,0,0,0,1 @ F,0,0,1,0,0,0,1 @ F,0,0,1,0,0,0,1 @ F,0,0,1,0,0,0,1 @ F,0,0,1,0,0,0,1 @ F,0,0,1,0,0,0,1 @ F,0,0,1,0,0,0,1 @ F,0,0,1,0,0,0,1 @ F,0,0,1,0,0,0,1 @ F,0,0,1,0,0,0,1 @ F,0,0,1,0,0,0,1 @ F,0,0,1,0,0,0,1 @ F,0,0,1,0,0,0,1 @ F,0,0,1,0,0,0,1 @ F,0,0,1,0,0,0,1 @ F,0,0,1,0,0,0,1 @ F,0,0,1,0,0,0,1 @ F,0,0,1,0,0,0,1 @ F,0,0,1,0,0,0,1 @ F,0,0,1,0,0,0,1 @ F,0,0,1,0,0,0,1 @ F,0,0,1,0,0,0,1 @ F,0,0,1,0,0,0,1 @ F,0,0,1,0,0,0,1 @ F,0,0,1,0,0.68726395,0,1 @ F,0,0,1,0,0,0,1 @ F,0,0,1,0,0,0,1 @ F,0,0,1,0,0,0,1 @ F,0,0,1,0,0,0,1 @ F,0,0,1,0,0,0,1 @ F,0,0,1,0,0,0,1 @ F,0,0,1,0,0,0,1 @ F,0,0,1,0,0,0,1 @ F,0,0,1,0,0,0,1"
       radius="0"
       unit="px"
       method="auto"
       mode="F"
       chamfer_steps="1"
       flexible="false"
       use_knot_distance="true"
       apply_no_radius="true"
       apply_with_radius="true"
       only_selected="false"
       hide_knots="false" /><inkscape:path-effect
       effect="fillet_chamfer"
       id="path-effect3"
       is_visible="true"
       lpeversion="1"
       nodesatellites_param="F,0,0,1,0,0,0,1 @ F,0,0,1,0,0,0,1 @ F,0,0,1,0,0,0,1 @ F,0,0,1,0,0,0,1 @ F,0,0,1,0,0,0,1 @ F,0,0,1,0,0,0,1 @ F,0,0,1,0,0,0,1 @ F,0,0,1,0,0,0,1 @ F,0,0,1,0,0,0,1 @ F,0,0,1,0,0,0,1 @ F,0,0,1,0,0,0,1 @ F,0,0,1,0,0,0,1 @ F,0,0,1,0,0,0,1 @ F,0,0,1,0,0,0,1 @ F,0,0,1,0,0,0,1 @ F,0,0,1,0,0,0,1 @ F,0,0,1,0,0,0,1 @ F,0,0,1,0,0,0,1 @ F,0,0,1,0,0,0,1 @ F,0,0,1,0,0,0,1 @ F,0,0,1,0,0,0,1 @ F,0,0,1,0,0,0,1 @ F,0,0,1,0,0,0,1 @ F,0,0,1,0,0,0,1 @ F,0,0,1,0,0,0,1 @ F,0,0,1,0,0,0,1 @ F,0,0,1,0,0,0,1 @ F,0,0,1,0,0,0,1 @ F,0,0,1,0,0,0,1 @ F,0,0,1,0,0,0,1 @ F,0,0,1,0,0,0,1 @ F,0,0,1,0,0,0,1 @ F,0,0,1,0,0,0,1 @ F,0,0,1,0,0,0,1 @ F,0,0,1,0,0,0,1 @ F,0,0,1,0,0,0,1 @ F,0,0,1,0,0,0,1 @ F,0,0,1,0,0,0,1 @ F,0,0,1,0,0,0,1 @ F,0,0,1,0,0,0,1 @ F,0,0,1,0,0,0,1 @ F,0,0,1,0,0,0,1 @ F,0,0,1,0,0,0,1 @ F,0,0,1,0,0,0,1 @ F,0,0,1,0,0,0,1 @ F,0,0,1,0,0,0,1 @ F,0,0,1,0,0,0,1 @ F,0,0,1,0,0,0,1 @ F,0,0,1,0,0,0,1"
       radius="0"
       unit="px"
       method="auto"
       mode="F"
       chamfer_steps="1"
       flexible="false"
       use_knot_distance="true"
       apply_no_radius="true"
       apply_with_radius="true"
       only_selected="false"
       hide_knots="false" /><inkscape:path-effect
       effect="fillet_chamfer"
       id="path-effect2"
       is_visible="true"
       lpeversion="1"
       nodesatellites_param="F,0,0,1,0,0,0,1 @ F,0,0,1,0,0,0,1 @ F,0,0,1,0,0,0,1 @ F,0,0,1,0,0,0,1 @ F,0,0,1,0,0,0,1 @ F,0,0,1,0,0,0,1 @ F,0,0,1,0,0,0,1 @ F,0,0,1,0,0,0,1 @ F,0,0,1,0,0,0,1 @ F,0,0,1,0,0,0,1 @ F,0,0,1,0,0,0,1 @ F,0,0,1,0,0,0,1 @ F,0,0,1,0,0,0,1 @ F,0,0,1,0,0,0,1 @ F,0,0,1,0,0,0,1 @ F,0,0,1,0,0,0,1 @ F,0,0,1,0,0,0,1 @ F,0,0,1,0,0,0,1 @ F,0,0,1,0,0,0,1 @ F,0,0,1,0,0,0,1 @ F,0,0,1,0,0,0,1 @ F,0,0,1,0,0,0,1 @ F,0,0,1,0,0,0,1 @ F,0,0,1,0,0,0,1 @ F,0,0,1,0,0,0,1 @ F,0,0,1,0,0,0,1 @ F,0,0,1,0,0,0,1 @ F,0,0,1,0,0,0,1 @ F,0,0,1,0,0,0,1 @ F,0,0,1,0,0,0,1 @ F,0,0,1,0,0,0,1 @ F,0,0,1,0,0,0,1 @ F,0,0,1,0,0,0,1 @ F,0,0,1,0,0,0,1 @ F,0,0,1,0,0,0,1 @ F,0,0,1,0,0,0,1 @ F,0,0,1,0,0,0,1 @ F,0,0,1,0,0,0,1 @ F,0,0,1,0,0,0,1 @ F,0,0,1,0,0,0,1 @ F,0,0,1,0,0,0,1 @ F,0,0,1,0,0,0,1 @ F,0,0,1,0,0,0,1 @ F,0,0,1,0,0,0,1 @ F,0,0,1,0,0,0,1 @ F,0,0,1,0,0,0,1 @ F,0,0,1,0,0,0,1 @ F,0,0,1,0,0,0,1 @ F,0,0,1,0,0,0,1"
       radius="0"
       unit="px"
       method="auto"
       mode="F"
       chamfer_steps="1"
       flexible="false"
       use_knot_distance="true"
       apply_no_radius="true"
       apply_with_radius="true"
       only_selected="false"
       hide_knots="false" /></defs><g
     inkscape:groupmode="layer"
     inkscape:label="Logotype"
     id="g1"
     transform="translate(14.010206,11.776896)"><g
       style="clip-rule:evenodd;display:inline;fill-rule:evenodd;stroke:#ffffff;stroke-width:9.17351;stroke-linecap:butt;stroke-linejoin:miter;stroke-dasharray:none;stroke-opacity:1;paint-order:stroke fill markers;image-rendering:optimizeQuality;shape-rendering:geometricPrecision;text-rendering:geometricPrecision"
       id="g5"
       transform="matrix(0.10901326,0,0,0.10900576,-2.839159,-3.662349)"><path
         style="baseline-shift:baseline;clip-rule:nonzero;display:inline;overflow:visible;opacity:0.972;vector-effect:none;fill:#ffffff;fill-rule:nonzero;stroke:none;stroke-width:9.17351;stroke-linecap:butt;stroke-linejoin:miter;stroke-dasharray:none;stroke-opacity:1;paint-order:stroke fill markers;image-rendering:auto;shape-rendering:auto;text-rendering:auto;enable-background:accumulate;stop-color:#000000;stop-opacity:1"
         d="m 199.60352,4.8046875 -1.17774,0.578125 c -2.23038,1.0958775 -4.60056,2.1345853 -7.10937,3.1113281 l -0.43164,0.1679688 -0.39063,0.2519531 C 152.80785,33.230152 114.87302,57.177275 76.689453,80.755859 l -0.392578,0.242188 -0.335938,0.314453 c -3.045704,2.855929 -5.18164,6.383039 -5.18164,10.347656 0,3.964617 2.135936,7.493681 5.18164,10.349614 l 0.806641,0.75586 1.0625,0.30468 c 11.483828,3.30415 23.029772,6.29098 34.611332,9.08789 1.00389,6.20798 2.28773,12.34795 3.79297,18.4336 -15.20663,0.27642 -30.412805,0.55382 -45.619146,0.83007 l -0.455078,0.01 -0.441406,0.0957 c -7.276247,1.59096 -12.875449,6.7441 -15.072266,13.86524 l -0.138672,0.45117 -0.04492,0.4668 c -0.649693,6.82277 -0.649693,13.6538 0,20.47656 l 0.07031,0.73047 0.292969,0.67187 c 2.984135,6.82492 8.684443,11.44419 15.755859,13.26367 3.270444,4.71443 4.789063,9.10015 4.789063,13.36524 0,4.28918 -1.532287,8.70724 -4.84375,13.46484 -5.892773,1.86907 -10.894485,5.44647 -14.365235,10.58789 l -0.498047,0.73633 -0.185546,0.86719 c -1.558324,7.2606 -1.893785,14.63688 -1.003907,22.04883 l 0.04883,0.40429 0.119141,0.39063 c 2.173411,7.10904 7.775224,12.25472 15.060547,13.87305 l 0.429687,0.0957 0.441407,0.0117 c 8.315116,0.22455 16.629909,0.449 24.945312,0.67383 -5.263621,7.11927 -9.010325,15.15967 -11.085937,24.04101 l -0.02539,0.10742 -0.01953,0.10743 c -3.614667,19.68137 0.738904,37.40136 12.523437,52.04687 -9.087444,0.22727 -18.174547,0.45465 -27.261718,0.68164 l -0.828125,0.0215 -0.767579,0.30859 c -5.095272,2.04613 -9.206439,5.22419 -11.666015,9.5293 -2.393143,4.18882 -3.065963,9.19833 -2.400391,14.52539 -0.791234,7.12861 1.145754,13.98939 5.699219,19.52734 l 0.529297,0.64258 0.722656,0.41601 c 3.477636,2.00526 7.0322,3.80825 10.619141,5.52344 5.510428,9.4188 5.22434,17.32679 -0.947266,26.25195 -5.405937,1.49179 -9.935269,4.1125 -12.876953,8.15821 -3.19387,4.39254 -4.275637,10.02598 -3.751953,16.20703 -0.580194,4.98536 0.05527,9.7134 2.21875,13.74609 2.23606,4.168 5.97242,7.39666 10.648437,9.63672 l 0.923828,0.44336 1.025391,0.008 c 64.832049,0.45666 129.664169,0.59615 194.498039,0.45703 0.24579,2.07314 0.67957,4.11741 1.39454,6.09961 0.85795,2.92649 3.48984,5.55056 6.42578,6.35157 l 0.043,0.0117 0.043,0.0117 c 3.89456,0.98192 8.02524,0.52551 11.60157,-1.29296 l 0.4707,-0.23829 0.4043,-0.33984 c 5.24749,-4.41444 10.70019,-8.52217 16.29492,-12.42187 5.93345,3.72682 11.62511,7.80486 16.9707,12.39257 l 0.72852,0.625 0.91797,0.28125 c 2.92315,0.89291 5.58094,1.37536 8.16211,1.2461 2.58116,-0.12927 5.22672,-1.00224 7.16796,-2.86914 2.66358,-2.56158 3.43416,-6.00268 3.29297,-9.86133 14.31428,0.18859 28.60063,-0.20509 42.84375,-1.4043 l 0.48243,-0.0391 0.46289,-0.14063 c 21.71766,-6.58548 36.9693,-21.15395 44.5332,-42.54101 l 0.0625,-0.17969 0.0488,-0.18555 c 5.56,-21.21095 1.78038,-40.69066 -10.86914,-57.04882 9.93892,-0.25375 19.85516,-0.72731 29.72265,-1.63477 l 1.07032,-0.0977 0.91406,-0.56445 c 7.98149,-4.91613 11.86929,-13.40081 10.57812,-22.7168 0.50854,-6.32938 -0.62004,-12.07493 -3.89453,-16.54101 -3.00368,-4.09674 -7.61302,-6.74246 -13.11523,-8.24219 -3.16286,-4.93857 -4.5427,-9.45321 -4.3711,-13.74414 0.17466,-4.3673 1.94757,-8.77676 5.61133,-13.45117 6.71797,-1.82325 12.12726,-6.3048 14.9336,-12.82617 l 0.28515,-0.66016 0.0684,-0.7168 c 0.65,-6.8229 0.65,-13.65367 0,-20.47656 l -0.0391,-0.41016 -0.11133,-0.39648 C 454.7657,240.41003 450.5307,235.72155 444.80859,233.5 l -0.59375,-0.23047 -0.63281,-0.0606 c -9.35317,-0.88632 -18.74535,-1.35681 -28.15625,-1.62109 6.89932,-9.35003 11.08084,-20.12674 12.21875,-32.125 l 0.0234,-0.23437 -0.002,-0.23633 c -0.1513,-18.48044 -4.87528,-33.78781 -14.47266,-45.25586 -9.59729,-11.468 -23.83622,-18.8207 -42.00772,-22.23628 l -0.33008,-0.0606 -0.33594,-0.0137 c -10.60078,-0.41869 -21.20666,-0.49871 -31.81445,-0.41992 -3.62255,-21.71379 -7.93295,-43.31633 -12.99414,-64.796876 0.65104,-1.166959 1.4502,-2.217067 2.63476,-3.136718 l -0.11328,0.08594 c 2.55883,-1.862437 5.01783,-3.851912 7.41211,-5.923828 2.1475,8.112557 4.2963,16.228797 6.45703,24.396484 l 0.36719,1.388672 1.0957,0.931641 c 2.92682,2.489017 6.4013,4.107138 10.08789,3.84375 3.6866,-0.263389 6.90159,-2.371278 9.41407,-5.261719 l 1.30273,-1.501953 -0.20312,-1.978516 c -1.61255,-15.656038 -4.45713,-31.14405 -8.53125,-46.457031 l 0.12695,0.671875 c -0.3157,-2.841807 -1.38439,-5.604696 -3.41602,-7.636719 -2.0297,-2.030101 -4.79006,-3.099087 -7.6289,-3.416015 C 296.87151,15.53405 248.93559,9.7725762 200.9082,4.9355469 Z m 1.55078,9.3886715 c 47.55982,4.804915 95.03099,10.50358 142.41211,17.121094 l 0.0644,0.0098 0.0645,0.0078 c 1.3589,0.151018 1.86204,0.481117 2.16406,0.783203 0.30203,0.302087 0.63413,0.806425 0.78516,2.166016 l 0.0371,0.341797 0.0879,0.330078 c 3.75931,14.129708 6.35755,28.414459 7.95508,42.835937 -0.70813,0.527692 -1.30687,0.825624 -1.72461,0.855469 -0.51035,0.03646 -1.36319,-0.277326 -2.4668,-1.003906 -2.66505,-10.073645 -5.31993,-20.111861 -7.96484,-30.101563 l -2.03125,-7.673828 -5.63477,5.591797 c -3.77627,3.748385 -7.7963,7.175752 -12.06836,10.285156 l -0.0586,0.04102 -0.0566,0.04297 c -2.7012,2.097109 -4.80522,4.817925 -6.09375,7.943359 l -0.56445,1.369141 0.34179,1.439453 c 5.4859,23.098343 10.13172,46.332218 13.9375,69.701178 l 0.63477,3.90039 3.95312,-0.0508 c 11.61769,-0.15315 23.23204,0.005 34.8418,0.45703 16.54184,3.15897 28.45353,9.55529 36.38867,19.03711 7.94164,9.48958 12.1362,22.34551 12.31641,39.19531 -1.31233,13.33419 -6.51092,24.41391 -15.91406,33.85351 l -7.73243,7.76172 10.95704,0.0625 c 12.11247,0.0678 24.17081,0.6745 36.18359,1.79102 2.95501,1.26517 4.5376,3.03254 5.50195,6.19336 0.52733,5.82504 0.52511,11.64394 0.0176,17.46875 -2.05871,4.39875 -4.86841,6.57572 -9.8125,7.45703 l -1.64453,0.29297 -1.07031,1.2832 c -5.16496,6.18241 -8.16334,12.92395 -8.44336,19.92578 -0.28002,7.00183 2.1609,13.98951 6.79883,20.64844 l 1.04101,1.49414 1.7832,0.37305 c 4.94642,1.03596 7.87304,2.86421 9.63086,5.26172 1.75783,2.3975 2.6327,5.75996 2.14649,10.8164 l -0.0566,0.58985 0.0937,0.58398 c 1.0459,6.45183 -0.52888,10.10406 -5.52735,13.45703 -12.46396,1.11086 -24.98471,1.7152 -37.56836,1.76172 l -11.09765,0.041 7.88867,7.80664 c 16.00978,15.84151 20.86569,33.64872 15.16211,55.61328 -6.70611,18.80622 -19.00249,30.58693 -38.04688,36.48437 -15.48453,1.2848 -31.01151,1.74755 -46.58398,1.35743 l -5.78516,-0.14649 1.17969,5.66602 c 1.00774,4.83832 0.15072,6.73246 -0.0117,6.88867 -0.0812,0.0781 -0.24681,0.26714 -1.26953,0.31836 -0.89306,0.0447 -2.5301,-0.24641 -4.38672,-0.74805 -6.20173,-5.23201 -12.7475,-9.96921 -19.6875,-14.12891 l -2.50976,-1.5039 -2.41992,1.64062 c -6.52606,4.41943 -12.81685,9.18342 -18.89258,14.25977 -1.63836,0.77879 -3.059,0.94689 -4.88282,0.5 0.022,0.083 0.0445,0.25372 -0.0332,-0.0312 l -0.0527,-0.19922 -0.0723,-0.19141 c -0.90494,-2.43529 -1.27144,-4.87435 -1.12109,-7.47461 l 0.28125,-4.86328 -4.8711,0.0117 c -65.84357,0.1549 -131.68556,-0.003 -197.527339,-0.46289 -2.858533,-1.51268 -4.748238,-3.23204 -5.833985,-5.25586 -1.186611,-2.21183 -1.672307,-4.95522 -1.175781,-8.69922 l 0.07031,-0.52929 -0.05273,-0.53125 c -0.493076,-4.89938 0.340297,-8.14342 2.025391,-10.46094 1.685094,-2.31752 4.507038,-4.10436 9.310547,-5.13672 l 1.6875,-0.36328 1.029296,-1.38672 c 8.937606,-12.03529 9.522048,-26.04573 1.613282,-38.76758 l -0.720703,-1.16015 -1.238282,-0.57618 c -3.556914,-1.65628 -7.045787,-3.49734 -10.49414,-5.45703 -2.896396,-3.78955 -3.937861,-7.66247 -3.236328,-12.61523 l 0.0918,-0.63672 -0.08984,-0.63672 c -0.561294,-4.04782 -0.02622,-6.92194 1.248047,-9.15234 1.196822,-2.09485 3.281367,-3.82764 6.578125,-5.26367 12.095409,-0.30219 24.190185,-0.60608 36.28516,-0.90821 l 11.2539,-0.28125 -8.24609,-7.66406 C 95.035592,321.13247 89.629479,304.69663 93.396484,284.00586 c 2.490803,-10.58101 7.454526,-19.50781 15.078126,-27.10938 l 7.56641,-7.54492 -10.68164,-0.28906 c -11.317087,-0.30562 -22.633612,-0.61231 -33.951177,-0.91797 -4.344479,-1.03241 -6.478264,-2.9907 -7.839844,-7.13867 -0.674714,-5.97879 -0.398783,-11.85729 0.761719,-17.70508 2.584006,-3.49966 5.782093,-5.66079 10.248047,-6.74219 l 1.605469,-0.38867 0.988281,-1.32422 c 4.744537,-6.35051 7.373047,-13.12628 7.373047,-20.02734 0,-6.90107 -2.628545,-13.67305 -7.375,-20.01172 l -1.111328,-1.48242 -1.828125,-0.29688 c -5.35955,-0.8673 -8.432621,-3.19975 -10.673828,-7.93164 -0.503448,-5.795 -0.506688,-11.58564 0.01367,-17.38086 1.382546,-4.17053 3.516696,-6.12354 7.816407,-7.13281 16.911736,-0.30726 33.822972,-0.61464 50.734372,-0.92187 l 5.9043,-0.10547 -1.56445,-5.69532 c -2.35171,-8.5591 -4.1803,-17.24518 -5.48633,-26.06445 l -0.45508,-3.07226 -3.02148,-0.71875 c -12.0105,-2.85385 -23.963552,-6.010981 -35.869145,-9.416019 -1.215687,-1.340269 -1.677734,-2.338436 -1.677734,-2.927735 0,-0.670001 0.408123,-1.776247 2.107422,-3.441406 37.949837,-23.43923 75.655867,-47.241273 113.115237,-71.408203 2.07734,-0.821699 4.05118,-1.705441 5.98047,-2.617188 z m 108.41601,53.419922 -5.625,4.636719 c -22.44973,18.502751 -44.72358,37.22915 -66.83203,56.16992 -6.93365,3.94624 -13.83613,4.9574 -21.58594,3.12891 -26.95544,-7.74806 -54.00897,-15.0602 -81.16211,-21.92774 l -6.99609,-1.76953 1.36719,7.08594 c 3.38636,17.56007 7.13262,35.04748 11.24023,52.4668 l 0.72071,3.05468 3.10937,0.43555 c 63.97541,8.95055 123.44962,-4.09234 177.67188,-38.96484 l 2.67968,-1.72071 -0.67773,-3.11132 c -3.8174,-17.53358 -7.87223,-35.001865 -12.16406,-52.406254 z m -5.48242,16.5 c 3.36375,13.86747 6.61782,27.764789 9.67969,41.714849 -50.8909,31.92553 -105.85975,43.97635 -165.57813,36.28906 -3.23391,-13.86993 -6.21251,-27.78871 -8.98633,-41.74805 24.73866,6.33121 49.40606,12.98121 73.98047,20.04688 l 0.10547,0.0312 0.10547,0.0254 c 9.90155,2.34254 19.72666,0.88529 28.55859,-4.22852 l 0.36524,-0.21289 0.32031,-0.27344 c 20.32494,-17.41725 40.83538,-34.59837 61.44922,-51.644529 z M 68.912109,146.82617 v 19.36524 l 4.507813,0.0781 c 18.162814,0.31272 36.315648,-3.6e-4 54.457028,-0.93945 l 6.43555,-0.33203 -2.42383,-5.97266 c -1.0044,-2.47522 -1.50543,-4.98598 -1.5293,-7.65234 l -0.041,-4.54688 z m 240.716801,0.002 -1.25196,0.008 -1.07422,0.64453 c -6.01392,3.60997 -12.33704,6.77444 -18.97851,9.49219 l 1.67969,8.83007 c 24.75573,0.30921 49.50966,0.61853 74.26562,0.92774 3.96247,0.55082 7.58237,1.84465 11.00195,3.93164 10.57546,7.80841 14.43246,17.12429 12.49414,30.23047 -3.22154,11.93498 -10.0035,18.75838 -21.86523,22.02929 -97.16088,0.31019 -194.32159,0.62147 -291.482421,0.93165 l -3.203125,0.01 -1.09375,3.00977 c -1.337893,3.68209 -1.538803,7.66427 -0.615235,11.50781 l 0.792969,3.30078 3.388672,0.20508 c 10.291361,0.62273 20.652264,0.93831 31.08008,0.94336 12.66719,0.0779 25.30589,-0.39274 37.91601,-1.40039 79.0728,-0.008 158.09311,-0.63226 237.06055,-1.86914 l 0.83594,-0.0117 0.77929,-0.3086 c 14.47253,-5.71778 24.56285,-16.51923 29.28711,-31.34961 l 0.0977,-0.30273 0.0527,-0.3125 c 2.52416,-14.70542 0.92596,-27.51018 -5.28906,-37.75391 -6.21501,-10.24373 -16.81963,-17.54307 -30.98828,-22.01562 l -0.625,-0.19727 -0.6543,-0.0137 c -21.20085,-0.46781 -42.40566,-0.62305 -63.61132,-0.4668 z M 78.085937,156 H 121.6543 c 0.0197,0.12133 0.0178,0.24613 0.0391,0.36719 -14.52896,0.64557 -29.064343,0.89702 -43.607423,0.73047 z m 232.730473,0.008 c 20.49433,-0.14034 40.9865,0.008 61.47656,0.45313 12.39098,4.01411 20.61616,9.97794 25.37305,17.81836 4.78554,7.88765 6.30431,18.05082 4.12695,31.09179 -3.95694,12.18586 -11.41083,20.189 -23.20313,25.0293 -2.12363,0.0331 -4.24933,0.042 -6.37304,0.0742 12.40165,-4.66477 20.98194,-14.19103 24.49218,-27.47266 l 0.0625,-0.23633 0.0371,-0.24218 c 2.4451,-15.98133 -3.30641,-29.90831 -16.29492,-39.40625 l -0.14648,-0.10742 -0.1543,-0.0957 c -4.5562,-2.8099 -9.56247,-4.5974 -14.86523,-5.30859 l -0.27539,-0.0371 -0.27735,-0.004 c -18.51603,-0.23126 -37.03099,-0.46378 -55.54687,-0.69531 0.51727,-0.2954 1.05518,-0.55985 1.56836,-0.86133 z m -178.31836,76.83203 c -9.21932,0.53373 -18.44997,0.87385 -27.70117,0.81641 h -0.0117 -0.0137 c -7.286772,-0.004 -14.494954,-0.34775 -21.710933,-0.6582 16.479189,-0.0526 32.958273,-0.10555 49.437503,-0.15821 z m 238.72851,14.82032 c -78.55343,0.7776 -157.26267,1.24449 -236.1289,1.40039 l -0.76563,0.002 -0.72266,0.25 c -21.02558,7.26098 -33.52476,23.16373 -35.738276,45.42969 l -0.04687,0.46289 0.04883,0.46484 c 1.352401,12.97616 5.677776,23.78716 13.144536,31.86328 7.46676,8.07613 17.90343,13.23082 30.72851,15.58789 l 0.39649,0.0723 0.40234,0.002 c 98.03272,0.62287 196.06494,0.62287 294.09766,0 l 3.08594,-0.0195 1.14453,-2.86328 c 1.6358,-4.09093 1.6358,-8.65125 0,-12.74219 l -1.14844,-2.875 -3.0957,-0.01 c -97.4661,-0.31015 -194.93229,-0.62149 -292.39844,-0.93164 -3.28222,-0.90402 -6.39546,-2.19684 -9.36328,-3.91797 -8.08478,-6.02157 -11.84851,-13.42776 -11.96485,-23.64453 0.40433,-8.54287 2.71884,-14.79959 6.7168,-19.37891 3.97077,-4.54817 9.82312,-7.6724 18.14844,-9.24219 96.59026,-0.46488 193.18227,-0.62243 289.77344,-0.46679 l 4.59375,0.008 V 247.66016 H 371.25 Z m 0.0449,9.17382 h 0.0449 61.64453 v 1.10547 c -95.24759,-0.14375 -190.49555,-4.9e-4 -285.74219,0.45899 l -0.40234,0.002 -0.39844,0.0723 c -9.96133,1.8165 -18.08469,5.8645 -23.70899,12.30664 -5.62429,6.44213 -8.53588,15.03466 -8.98632,25.14453 l -0.006,0.12304 v 0.12305 c 0.11242,12.77591 5.64309,23.66515 15.86914,31.19531 l 0.1914,0.13868 0.20313,0.11914 c 3.88555,2.28698 8.02005,4.01098 12.36133,5.15234 l 0.5664,0.14844 0.58399,0.002 c 96.49409,0.30706 192.9883,0.6148 289.48242,0.92188 8.5e-4,0.06 8.5e-4,0.12753 0,0.1875 -96.62083,0.59881 -193.24246,0.602 -289.86328,-0.01 -11.222,-2.11279 -19.50083,-6.38404 -25.35938,-12.7207 -5.83025,-6.30607 -9.42687,-14.85387 -10.67773,-26.13282 2.02473,-18.99797 11.12373,-30.59909 28.92578,-36.94335 78.57868,-0.15765 157.00296,-0.61987 235.27148,-1.39454 z m -300.126949,92.59375 -1.05664,3.11329 c -1.512271,4.46022 -1.512689,9.22445 0,13.68359 l 1.048828,3.08984 3.261718,0.0234 c 64.422553,0.46693 128.847013,0.62275 193.271483,0.4668 l 4.57422,-0.0117 V 349.4279 Z m 207.818359,0 -0.0234,4.5625 c -0.15605,30.53154 0.002,61.06316 0.46875,91.5918 l 0.1543,10.1875 7.52344,-6.87109 c 3.54397,-3.23706 7.31617,-6.16089 11.28515,-8.82617 1.31611,-0.25007 2.59801,-0.24989 3.91407,0 3.96941,2.66548 7.74084,5.5888 11.28515,8.82617 l 7.52539,6.87109 0.1543,-10.1875 c 0.46721,-30.52864 0.6248,-61.06026 0.46875,-91.5918 l -0.0234,-4.5625 z m 53.98047,0 -4.5293,0.0566 v 20.38282 l 4.64844,-0.0625 c 11.23237,-0.15207 22.45905,0.0105 33.68359,0.45508 14.24946,4.2794 21.02994,12.6608 22.30469,27.61328 -0.74508,8.16926 -3.18952,14.31988 -7.20898,18.92382 -4.02126,4.606 -9.77403,7.84645 -17.75196,9.66602 -10.33629,0.44771 -20.67646,0.60944 -31.02148,0.45703 l -4.6543,-0.0684 V 445.375 l 4.5293,0.0547 c 12.83602,0.15683 25.66782,7.9e-4 38.49609,-0.46875 l 0.41211,-0.0156 0.40235,-0.0879 c 12.24973,-2.68474 22.14707,-7.9849 29.11523,-16 6.96816,-8.0151 10.84559,-18.55779 11.81445,-31.07422 l 0.0274,-0.35937 -0.0293,-0.35938 c -1.01569,-12.73793 -5.00017,-23.40795 -12.15039,-31.43164 -7.15022,-8.02369 -17.28712,-13.19988 -29.81055,-15.65234 l -0.35156,-0.0684 -0.35937,-0.0137 c -12.51839,-0.4697 -25.04028,-0.62758 -37.56641,-0.47071 z M 78.226562,358.60156 H 263.07031 v 2.01758 c -61.61483,0.13502 -123.22863,-0.0103 -184.841794,-0.44531 -0.03749,-0.51515 -0.03899,-1.05704 -0.002,-1.57227 z m 209.910158,0 h 24.38476 c 0.10533,25.7494 -0.0556,51.49859 -0.39453,77.2461 -1.81391,-1.36932 -3.64122,-2.71964 -5.54297,-3.97071 l -0.65234,-0.42968 -0.75586,-0.18946 c -3.18761,-0.79736 -6.50575,-0.79736 -9.69336,0 l -0.75586,0.18946 -0.65234,0.42968 c -1.90174,1.25107 -3.72906,2.60139 -5.54297,3.97071 -0.33894,-25.74751 -0.49985,-51.4967 -0.39453,-77.2461 z m 49.44922,0.0566 c 10.72416,-0.0688 21.44739,0.004 32.16601,0.40039 10.91386,2.18843 18.87587,6.44547 24.42969,12.67774 5.54304,6.22017 8.86269,14.6124 9.80664,25.69336 -0.90033,10.87348 -4.12741,19.17898 -9.54297,25.4082 -5.4157,6.22939 -13.18372,10.5717 -23.8125,12.96094 -11.01321,0.39646 -22.02841,0.47483 -33.04687,0.40429 v -0.17773 c 9.1206,0.0562 18.24023,-2e-5 27.35351,-0.40234 l 0.39844,-0.0176 0.38867,-0.0859 c 9.59758,-2.11842 17.46187,-6.31693 23.02539,-12.68945 5.56352,-6.37253 8.6701,-14.73795 9.49414,-24.55078 l 0.0312,-0.36914 -0.0293,-0.3711 c -1.42334,-18.22448 -11.94111,-31.19041 -29.4336,-36.25976 l -0.53515,-0.1543 -0.55469,-0.0234 c -10.04221,-0.40734 -20.08998,-0.4696 -30.13867,-0.40625 z m -268.294924,68.26172 -0.363282,4.19141 c -0.313567,3.62016 0.05956,7.20589 1.123047,10.62695 l 0.996094,3.20117 3.351562,0.0234 c 64.422553,0.46693 128.847013,0.62275 193.271483,0.4668 l 4.57422,-0.01 v -18.5 z m 131.267574,9.17383 h 62.51172 v 0.15039 c -20.83754,0.0457 -41.67436,-0.1308 -62.51172,-0.15039 z"
         id="path105" /><path
         style="baseline-shift:baseline;clip-rule:nonzero;display:inline;overflow:visible;opacity:0.972;vector-effect:none;fill-rule:nonzero;stroke:none;stroke-width:9.17351;stroke-linecap:butt;stroke-linejoin:miter;stroke-dasharray:none;stroke-opacity:1;paint-order:stroke fill markers;image-rendering:auto;shape-rendering:auto;text-rendering:auto;enable-background:accumulate;stop-color:#000000;stop-opacity:1"
         d="m 200.44878,9.4999998 c 48.00878,4.8351552 95.92608,10.5926562 143.75283,17.2724112 4.20057,0.466822 6.53422,2.800931 7.00095,7.002329 4.01294,15.083016 6.81332,30.332594 8.40114,45.748547 -4.01388,4.617709 -8.37034,4.928986 -13.06844,0.933644 -2.81158,-10.627948 -5.61196,-21.209307 -8.40114,-31.74389 -3.94013,3.911034 -8.1407,7.489971 -12.60171,10.736904 -2.12269,1.647975 -3.67876,3.670901 -4.6673,6.068685 5.51115,23.20469 10.17845,46.54588 14.0019,70.02329 11.82787,-0.15592 23.65201,0 35.47148,0.46682 34.86939,6.55418 52.45018,27.56116 52.74048,63.02096 -1.36565,14.39959 -7.12136,26.69194 -17.269,36.87893 12.49809,0.07 24.94391,0.69276 37.33839,1.86729 4.57396,1.77579 7.53022,5.04354 8.86787,9.80326 0.62262,6.5355 0.62262,13.07101 0,19.60652 -2.58662,6.0108 -7.09803,9.58945 -13.53517,10.7369 -9.37474,11.22147 -9.84147,22.89201 -1.40019,35.01164 11.38541,2.38453 16.51944,9.38686 15.40209,21.00699 1.32645,8.18246 -1.47393,14.40613 -8.40114,18.67288 -13.00496,1.196 -26.0734,1.81874 -39.20531,1.86729 17.0039,16.82519 22.44877,36.89853 16.33554,60.22002 -7.1531,20.22553 -20.99911,33.45153 -41.53896,39.67986 -15.82401,1.33231 -31.69283,1.79914 -47.60646,1.40047 2.28044,10.94884 -1.76424,14.8384 -12.13498,11.67055 -6.29338,-5.40113 -12.98349,-10.22433 -20.06939,-14.47148 -6.61356,4.47869 -12.99189,9.30283 -19.13592,14.47148 -2.6753,1.36032 -5.47568,1.67122 -8.40114,0.93364 -1.71104,-0.46682 -2.80038,-1.55638 -3.26711,-3.26775 -1.11922,-3.01194 -1.58595,-6.12377 -1.40019,-9.33644 -66.27659,0.15592 -132.55224,0 -198.826968,-0.46682 -8.027662,-3.84568 -11.450286,-10.22527 -10.268059,-19.1397 -1.138074,-11.30829 3.840348,-18.15564 14.935359,-20.54016 8.090577,-10.89469 8.557307,-22.09842 1.40019,-33.61118 -3.95591,-1.84208 -7.845357,-3.86435 -11.668249,-6.06869 -4.007997,-4.87455 -5.563795,-10.47641 -4.6673,-16.80559 -1.322993,-9.5409 2.410847,-16.07641 11.201519,-19.60652 12.446101,-0.3109 24.892296,-0.62274 37.338398,-0.93364 -16.175554,-15.03447 -22.243044,-33.55142 -18.202469,-55.55181 2.665494,-11.40539 8.110646,-21.20865 16.335549,-29.40978 -11.512642,-0.3109 -23.025377,-0.62274 -34.538018,-0.93364 -5.99776,-1.33231 -9.887114,-4.91097 -11.668249,-10.73691 -0.831059,-6.92203 -0.519937,-13.76844 0.93346,-20.54016 3.259082,-4.82787 7.770774,-7.94064 13.535169,-9.33644 8.612475,-11.5277 8.612475,-23.04326 0,-34.54482 -6.865691,-1.11104 -11.688598,-4.84561 -14.468629,-11.20373 -0.622338,-6.5355 -0.622338,-13.07101 0,-19.60652 1.805032,-5.85114 5.694479,-9.43073 11.668249,-10.7369 17.113401,-0.3109 34.226898,-0.62274 51.340298,-0.93364 -2.40086,-8.73798 -4.26778,-17.60759 -5.60076,-26.60885 -12.50295,-2.97086 -24.949145,-6.23861 -37.338399,-9.803264 -4.978421,-4.668219 -4.978421,-9.336439 0,-14.004658 C 117.30831,61.063842 155.26932,37.100286 192.9811,12.767753 c 2.62209,-1.020846 5.11163,-2.110128 7.46768,-3.2677532 z M 133.23967,114.06811 c 27.16928,6.87162 54.23962,14.18578 81.21101,21.94063 8.87534,2.09976 17.27648,0.85522 25.20342,-3.73458 22.23035,-19.05007 44.63339,-37.87886 67.20911,-56.485448 4.28178,17.363628 8.32647,34.791308 12.13498,52.284058 -53.38177,34.33195 -111.56713,47.09206 -174.557,38.27939 -4.09322,-17.3583 -7.82706,-34.7857 -11.20152,-52.28405 z m -59.741438,37.34575 h 52.273758 c 0.0289,3.22948 0.65155,6.34131 1.86692,9.33644 -18.03613,0.93364 -36.083083,1.24455 -54.140678,0.93364 z m 236.165358,0 c 21.16061,-0.15592 42.31934,0 63.47528,0.46682 26.88551,8.48683 37.93114,26.69288 33.13783,54.61817 -4.36486,13.70215 -13.23273,23.19358 -26.60361,28.47613 -78.98005,1.23708 -158.0133,1.85982 -237.09882,1.86729 -12.57277,1.01207 -25.17448,1.47889 -37.80513,1.40047 -10.337136,-0.005 -20.605195,-0.31651 -30.804178,-0.93365 -0.731366,-3.04367 -0.575758,-6.00052 0.46673,-8.86961 97.390678,-0.31091 194.782288,-0.62274 292.172958,-0.93365 13.53517,-3.57865 22.09219,-12.13737 25.67015,-25.6752 2.24123,-14.64887 -2.58195,-26.31942 -14.46863,-35.01164 -4.02695,-2.4835 -8.38341,-4.03988 -13.06844,-4.66822 -24.89258,-0.31091 -49.78422,-0.62274 -74.67679,-0.93365 6.85159,-2.80373 13.38581,-6.07148 19.60265,-9.80326 z m 61.60836,100.83354 h 66.27565 v 10.27008 c -96.76899,-0.15592 -193.53798,0 -290.30603,0.46682 -18.45731,3.36579 -28.10275,14.41453 -28.93726,33.14436 0.10175,11.56317 4.76905,20.74369 14.0019,27.54249 3.52941,2.07736 7.26325,3.63281 11.20152,4.66822 97.70245,0.3109 195.40396,0.62274 293.10641,0.93364 1.2443,3.11184 1.2443,6.22461 0,9.33644 -98.01329,0.62274 -196.02658,0.62274 -294.03987,0 -24.20648,-4.44881 -37.58595,-18.92029 -40.13878,-43.41444 2.07713,-20.89401 12.96763,-34.74275 32.6711,-41.54715 78.8783,-0.15592 157.59977,-0.62274 236.16536,-1.40046 z M 74.431692,354.01457 H 267.6579 v 11.20373 c -64.40967,0.15592 -128.81841,0 -193.226208,-0.46682 -1.213685,-3.57773 -1.213685,-7.15732 0,-10.73691 z m 209.095028,0 h 33.60455 c 0.15589,30.50028 0,60.99962 -0.46673,91.4971 -3.9476,-3.60573 -8.14817,-6.87349 -12.60171,-9.80326 -2.48953,-0.62274 -4.97814,-0.62274 -7.46768,0 -4.45353,2.92977 -8.6541,6.19753 -12.6017,9.80326 -0.46673,-30.49748 -0.62262,-60.99682 -0.46673,-91.4971 z m 49.47337,0 c 12.44956,-0.15592 24.89631,0 37.3384,0.46683 23.59973,4.62153 36.35733,18.93709 38.27186,42.94761 -1.82492,23.57544 -14.27074,37.89194 -37.3384,42.94762 -12.75386,0.46682 -25.51053,0.62274 -38.27186,0.46682 v -9.33644 c 10.58357,0.15592 21.16341,0 31.73764,-0.46682 17.76561,-3.9213 27.41105,-14.97005 28.93726,-33.14436 -1.31245,-16.80465 -10.02536,-27.54156 -26.13688,-32.21071 -11.50863,-0.46682 -23.02099,-0.62274 -34.53802,-0.46682 z M 73.498232,431.50701 H 267.6579 v 9.33644 c -64.40967,0.15592 -128.81841,0 -193.226208,-0.46682 -0.887254,-2.85415 -1.198469,-5.81007 -0.93346,-8.86962 z"
         id="path106" /></g><g
       id="g135"><path
         style="fill:#ffffff;fill-opacity:1;fill-rule:evenodd;stroke-width:3;paint-order:stroke fill markers"
         d="m 28.328465,26.380169 c -1.359222,-0.134877 -1.352245,-0.132318 -1.460836,-0.535596 -0.05265,-0.195514 -0.312479,-1.377218 -0.577406,-2.626008 -0.264927,-1.248789 -0.497656,-2.340132 -0.517175,-2.425206 -0.01952,-0.08507 0.0041,-0.15468 0.05248,-0.15468 0.147496,0 4.039524,1.035028 6.568802,1.746876 3.646724,1.026347 3.988234,0.984441 6.013573,-0.737912 2.450137,-2.083601 6.161858,-5.170622 6.18654,-5.145317 0.03249,0.03331 0.653511,2.646854 1.010554,4.252873 0.149342,0.671756 0.248379,1.258834 0.220083,1.304619 -0.08889,0.143831 -1.806489,1.128642 -2.912536,1.669949 -2.528405,1.237419 -5.143209,2.05955 -7.910413,2.487149 -1.353948,0.209217 -5.250008,0.304523 -6.673666,0.163253 z"
         id="path3"
         transform="translate(-14.010206,-11.776896)" /><path
         style="fill:#ffffff;fill-opacity:1;fill-rule:evenodd;stroke-width:3;paint-order:stroke fill markers"
         d="m 20.52366,34.013494 -1.264068,-0.03308 0.02663,-0.461585 0.02663,-0.461584 15.954097,-0.0513 15.954096,-0.0513 0.486136,-0.191138 c 0.988672,-0.388725 1.729435,-1.157594 2.123614,-2.204186 0.275036,-0.730255 0.223202,-1.96914 -0.112867,-2.697651 -0.310834,-0.673806 -1.107396,-1.501186 -1.736845,-1.804042 -0.461463,-0.222031 -0.605266,-0.242441 -2.130057,-0.30232 -0.899351,-0.03532 -2.80854,-0.0683 -4.242641,-0.0733 l -2.607456,-0.0091 0.966548,-0.486996 0.966548,-0.486996 3.585452,0.0249 3.585452,0.0249 0.790758,0.393411 c 1.381838,0.687477 2.253491,1.751642 2.531444,3.090534 0.05755,0.277201 0.08497,0.898157 0.06309,1.428969 -0.03529,0.856585 -0.06703,0.99844 -0.362633,1.620898 -0.415862,0.875686 -1.182126,1.689192 -1.991159,2.113916 l -0.589562,0.309507 -11.00435,0.09485 c -10.334895,0.08908 -15.00056,0.143891 -18.340582,0.215454 -0.777817,0.01666 -1.983044,0.01541 -2.678281,-0.0028 z"
         id="path4"
         transform="translate(-14.010206,-11.776896)" /><path
         style="fill:#ffffff;fill-opacity:1;fill-rule:evenodd;stroke-width:3;paint-order:stroke fill markers"
         d="m 19.180271,25.19973 v -0.495187 h 2.813536 2.813536 l 0.09604,0.419715 c 0.05282,0.230843 0.07611,0.43966 0.05175,0.464038 -0.02436,0.02438 -1.333672,0.05834 -2.90958,0.07547 l -2.865289,0.03115 z"
         id="path5"
         transform="translate(-14.010206,-11.776896)" /><path
         style="fill:#ffffff;fill-opacity:1;fill-rule:evenodd;stroke-width:3;paint-order:stroke fill markers"
         d="m 27.091029,44.945017 c -1.372792,-0.08989 -2.429638,-0.534282 -3.272417,-1.376011 -0.558015,-0.557321 -0.851655,-1.052187 -1.155772,-1.947804 -0.712252,-2.097567 0.346646,-4.422819 2.498397,-5.486272 l 0.669651,-0.330959 10.883119,-0.06248 c 5.985715,-0.03437 13.418759,-0.0657 16.517875,-0.06964 l 5.634758,-0.0072 v 0.53033 0.53033 H 43.008806 c -15.284106,0 -15.877191,0.006 -16.392874,0.166524 -1.771229,0.551268 -2.708109,1.990385 -2.546979,3.912345 0.10199,1.216533 0.90578,2.384624 1.984687,2.884201 l 0.507058,0.234789 16.07704,0.06691 c 8.842372,0.0368 16.096037,0.08591 16.119255,0.109129 0.06243,0.06243 0.04141,0.767138 -0.02487,0.833438 -0.07903,0.07906 -30.441377,0.09088 -31.641095,0.01232 z"
         id="path6"
         transform="translate(-14.010206,-11.776896)" /><path
         style="fill:#ffffff;fill-opacity:1;fill-rule:evenodd;stroke-width:3;paint-order:stroke fill markers"
         d="m 42.161242,51.624011 v -4.910769 h 1.767767 1.767767 v 4.905553 c 0,2.698054 -0.01929,4.905553 -0.04286,4.905553 -0.02357,0 -0.325993,-0.218761 -0.672047,-0.486136 -0.563971,-0.435747 -0.673563,-0.486135 -1.057314,-0.486135 -0.37529,0 -0.49812,0.05298 -0.99528,0.429277 -0.311935,0.236102 -0.612352,0.457211 -0.667593,0.491352 -0.07453,0.04606 -0.10044,-1.204539 -0.10044,-4.848695 z"
         id="path7"
         transform="translate(-14.010206,-11.776896)" /><path
         style="fill:#ffffff;fill-opacity:1;fill-rule:evenodd;stroke-width:3;paint-order:stroke fill markers"
         d="m 47.552931,55.706975 v -0.484529 l 1.789864,-0.04497 c 1.971505,-0.04953 2.336151,-0.129536 3.200792,-0.70225 1.23591,-0.818633 1.834694,-2.55062 1.389045,-4.017822 -0.322869,-1.062975 -0.984319,-1.800987 -2.037931,-2.27382 -0.508838,-0.228353 -0.617543,-0.241473 -2.437182,-0.294156 l -1.904588,-0.05514 v -0.57391 -0.573911 l 2.078109,0.06264 c 2.284813,0.06887 2.606058,0.126639 3.603845,0.648093 1.231921,0.643814 2.026565,1.766712 2.325391,3.285974 0.136495,0.693952 0.13634,0.794568 -0.0023,1.502602 -0.297882,1.521222 -1.101539,2.662089 -2.327352,3.303897 -0.967711,0.506672 -1.352236,0.574759 -3.622659,0.641462 l -2.055029,0.06037 z"
         id="path10"
         transform="translate(-14.010206,-11.776896)" /><path
         style="fill:#ffffff;fill-opacity:1;fill-rule:evenodd;stroke-width:3;paint-order:stroke fill markers"
         d="m 19.304793,47.740574 c -0.02569,-0.06694 -0.03438,-0.315536 -0.01932,-0.552427 l 0.02738,-0.430711 10.496116,-0.02246 10.496117,-0.02246 v 0.574885 0.574885 H 29.828294 c -8.815461,0 -10.4842,-0.0193 -10.523501,-0.121716 z"
         id="path11"
         transform="translate(-14.010206,-11.776896)" /><path
         style="fill:#ffffff;fill-opacity:1;fill-rule:evenodd;stroke-width:3;paint-order:stroke fill markers"
         d="m 24.461475,56.104517 c -5.002189,-0.02266 -5.192815,-0.02958 -5.192815,-0.188545 0,-0.09076 -0.02486,-0.289318 -0.05524,-0.441235 l -0.05524,-0.276214 h 10.57345 10.573457 v 0.486136 0.486136 l -5.325398,-0.02138 c -2.928969,-0.01176 -7.662165,-0.03196 -10.518214,-0.0449 z"
         id="path13"
         transform="translate(-14.010206,-11.776896)" /></g><g
       style="display:inline;fill:none;stroke-width:0.721235"
       id="g4"
       transform="matrix(1.3860351,0,0,1.3869847,-15.708032,-11.970217)"><g
         id="path1"
         style="opacity:1"><path
           style="baseline-shift:baseline;display:inline;overflow:visible;vector-effect:none;fill:#ffffff;enable-background:accumulate;stop-color:#000000;stop-opacity:1"
           d="m 50.9004,29.9814 c 0.0769,-0.0056 0.1581,-2e-4 0.2588,0.0147 0.0479,0.0071 0.0896,0.0078 0.1191,0.0078 0.0042,0 0.0084,-9e-4 0.0127,-0.001 0.0199,0.0091 0.0425,0.0208 0.0694,0.0293 l -0.0035,1.84e-4 c 0.0721,0.0215 0.1474,0.0598 0.2656,0.1289 l 0.01127,0.0018 0.0713,0.042 0.0537,0.0293 0.042,0.0263 0.0058,0.0039 c 0.0431,0.0345 0.0783,0.081 0.1748,0.2022 l 0.002,0.0029 0.0586,0.0694 0.042,0.0498 0.0332,0.0429 0.0039,0.0088 0.0049,0.0078 0.0459,0.0655 4.862747,9.634348 c 0.3337,0.6521 0.0763,1.4492 -0.5674,1.7812 l -0.0019,10e-4 c -0.188962,0.09945 -0.3939,0.1455 -0.5967,0.1455 -0.418,0 -0.8207,-0.1996 -1.0703,-0.5537 l -0.0977,-0.1611 -2.915204,-6.106724 -0.4814,-0.9405 -0.4219,0.9688 C 47.018343,44.364424 38.3664,50.4999 28.6104,50.5 17.6849,50.5 8.10618,43.0575 5.14746,32.3213 L 5.01172,31.8076 C 4.83261,31.0982 5.25958,30.3801 5.96094,30.2012 l 0.0039,-0.002 c 0.64901,-0.1709 1.32078,0.1924 1.55176,0.8252 l 0.04004,0.1299 C 10.0468,40.9808 18.701,47.8574 28.6123,47.8574 37.3751,47.8573 45.023715,42.789271 48.441015,34.784971 l 0.459,-1.119262 -0.450207,0.168853 a 53.122554,53.122554 160.1823 0 1 -1.293015,0.465966 L 41.2119,36.3564 c -0.6781,0.2527 -1.435,-0.091 -1.6885,-0.7744 v -9e-4 c -0.2543,-0.6853 0.0923,-1.4452 0.7705,-1.6993 L 50.498,30.0527 c 0.0087,-9e-4 0.0209,-0.0011 0.0342,-0.0029 0.0252,-0.0034 0.0602,-0.0102 0.1006,-0.0215 l 10e-4,10e-4 c 0.0986,-0.027 0.1791,-0.0422 0.2598,-0.0469 0.0023,-3.33e-4 0.0045,-6.67e-4 0.0068,-10e-4 z"
           id="path136" /><path
           style="baseline-shift:baseline;display:inline;overflow:visible;vector-effect:none;fill:#000000;enable-background:accumulate;stop-color:#000000;stop-opacity:1"
           d="m 50.875,29.621094 -0.01367,0.002 h 0.01172 c -0.03856,0.0022 -0.07711,0.01395 -0.115235,0.01953 l -0.01953,-0.01758 -0.199219,0.05664 h -0.0039 c -0.02451,0.0069 -0.04487,0.01092 -0.05078,0.01172 0.01223,-0.0017 0.01415,-0.0039 -0.02344,0 l -0.04687,0.0059 -10.246093,3.845703 c -0.861598,0.322813 -1.304153,1.295092 -0.982422,2.162109 0.321191,0.865887 1.291703,1.307054 2.152344,0.986328 l 5.9375,-2.052734 c 0.328608,-0.11364 0.654143,-0.233491 0.980468,-0.353516 l -0.146484,0.355469 c -3.362588,7.876148 -10.874288,12.853417 -19.498047,12.853516 -9.744499,0 -18.25395,-6.757212 -20.705078,-16.429688 l -0.00195,-0.0098 -0.044922,-0.146485 -0.00391,-0.0098 C 7.562511,30.097794 6.7030157,29.631059 5.8730469,29.849609 l -0.037109,0.01172 -0.039063,0.01953 0.074219,-0.0293 c -0.8913383,0.227359 -1.4355335,1.14763 -1.2089843,2.044922 v 0.002 l 0.1367187,0.517579 v 0.002 C 7.7991712,43.305205 17.522059,50.861328 28.611328,50.861328 38.518519,50.861227 47.294799,44.633539 51.212891,35.626953 l 0.117187,-0.269531 0.132813,0.257812 2.919921,6.117188 0.113282,0.1875 0.0078,0.0098 c 0.318068,0.451233 0.832435,0.707032 1.365235,0.707032 0.25739,0 0.520216,-0.05937 0.763671,-0.1875 0.817883,-0.421838 1.144905,-1.440489 0.722657,-2.265625 l -4.873047,-9.65625 -0.04492,-0.0625 -0.0078,-0.01953 -0.06445,-0.08398 -0.04687,-0.05469 -0.04687,-0.05469 -0.002,-0.002 -0.0059,-0.0078 c -0.09512,-0.119468 -0.140689,-0.186336 -0.232422,-0.259765 l -0.01172,-0.0078 -0.02148,-0.01563 -0.05664,-0.03516 -0.05859,-0.0332 -0.125,-0.07227 -0.03125,-0.0059 c -0.08684,-0.04835 -0.170067,-0.09393 -0.257812,-0.121094 v -0.0039 c 0.0084,0.0027 0.005,0.0031 -0.02734,-0.01172 l -0.07617,-0.03516 -0.08203,0.002 c -0.04912,0.0011 -0.05318,0 -0.0059,0 -0.0238,0 -0.04318,-7.53e-4 -0.06445,-0.0039 -0.115988,-0.01716 -0.225902,-0.02573 -0.337891,-0.01758 z m -11.689453,6.085937 -0.02344,-0.125 v 0.06445 z m 11.728515,-5.365234 h 0.01563 c 0.04137,-0.0028 0.09222,-6.46e-4 0.175782,0.01172 0.04659,0.0069 0.07404,0.0067 0.107422,0.0078 0.016,0.0065 0.01739,0.0088 0.03906,0.01563 l 0.002,-0.01367 c 4.79e-4,4e-6 0.0015,-3e-6 0.002,0 l -0.002,0.01563 c 0.0256,0.0076 0.07679,0.02903 0.1875,0.09375 l 0.05664,0.0332 0.01172,0.002 0.01758,0.01172 0.04883,0.02539 0.0098,0.0059 c -0.0032,-0.0022 0.02851,0.03352 0.103516,0.126953 l 0.0078,0.01172 c 0.0014,0.0018 5.08e-4,1.38e-4 0.002,0.002 l 0.06641,0.08008 0.03711,0.04492 0.002,0.002 -0.002,-0.0078 0.02344,0.03711 0.03516,0.05273 4.851563,9.611328 c 0.245151,0.479063 0.05936,1.054712 -0.410157,1.296875 l -0.002,0.002 h -0.0039 c -0.134468,0.07077 -0.279525,0.105469 -0.427734,0.105469 -0.303201,0 -0.594258,-0.145377 -0.775391,-0.402344 l -0.07617,-0.125 -2.908203,-6.09375 -0.832031,-1.623047 -0.726563,1.666016 c -3.809448,8.756845 -12.334644,14.800682 -21.939453,14.800781 -10.76173,0 -20.1981373,-7.328899 -23.1152343,-17.914063 L 5.3613281,31.71875 v -0.002 -0.002 C 5.2323048,31.19473 5.54074,30.68088 6.0507812,30.550781 l 0.00586,-0.002 c 0.4680512,-0.123249 0.9520915,0.136606 1.1210938,0.599609 l 0.029297,0.09375 c 0.00103,0.0041 0.00288,0.0077 0.00391,0.01172 l 0.00195,0.0059 C 9.748174,41.23057 18.539368,48.21875 28.611328,48.21875 37.51317,48.218648 45.301425,43.058233 48.773437,34.925781 v -0.002 l 0.773438,-1.886719 -1.224609,0.458985 c -0.426066,0.159799 -0.853147,0.314167 -1.283204,0.46289 l -5.949218,2.058594 h -0.0039 c -0.494624,0.184326 -1.035853,-0.05959 -1.222656,-0.558594 -3.53e-4,-9.43e-4 -0.0016,-0.001 -0.002,-0.002 v -0.002 c -0.186869,-0.503583 0.06379,-1.050941 0.558594,-1.236328 l 10.103515,-3.791016 0.0039,0.0039 0.201172,-0.05469 c 0.08363,-0.0229 0.136003,-0.03227 0.185546,-0.03516 z"
           id="path137" /></g><g
         id="path2"
         style="opacity:1"><path
           style="baseline-shift:baseline;display:inline;overflow:visible;vector-effect:none;fill:#ffffff;enable-background:accumulate;stop-color:#000000;stop-opacity:1"
           d="m 28.6074,0.5 c 10.736,9.7e-5 20.0974,7.05427 23.2852,17.5732 v 0.001 c 0.2118,0.6985 -0.1802,1.4353 -0.8701,1.6485 -0.6509,0.1957 -1.3364,-0.1346 -1.5938,-0.752 L 49.3828,18.8438 C 46.5391,9.46103 38.1943,3.14268 28.6074,3.14258 c -8.4217,0 -15.243194,4.87355 -19.4671147,12.162112 l -0.6163386,1.039995 1.2003186,-0.341795 6.5636517,-1.732351 0.0019,-10e-4 c 0.6932,-0.1951 1.4188,0.08202 1.6113,0.786715 l 0.001,0.001 c 0.1937,0.7048 0.0032,1.400136 -0.692802,1.592136 h -0.001 L 6.4847098,19.609884 c -0.11469,0.0317 -0.23103,0.0469 -0.34278,0.0469 h -0.00586 c -0.11899,-10e-5 -0.23788,-0.019 -0.35547,-0.0528 -0.01066,-0.0049 -0.02233,-0.0108 -0.03515,-0.0156 l -0.00879,-0.0029 -0.00977,-0.003 -0.09277,-0.0361 c -0.09059,-0.0401 -0.18132,-0.0956 -0.27441,-0.165 -0.03872,-0.0304 -0.07094,-0.0568 -0.10352,-0.087 l -0.00195,-0.0019 -0.22461,-0.2783 -0.03321,-0.0528 -0.02441,-0.0332 h -0.00195 l -0.03223,-0.0537 L 3.4536616,14.636314 1.6463831,9.3010337 C 1.4692541,8.4157748 1.6776331,7.9478442 2.3312437,7.6358842 l 9.8e-4,-9.8e-4 c 0.64895,-0.31229 1.43346,-0.03633 1.74707,0.625 v 9.8e-4 l 1.9190339,5.8912148 0.3972973,1.205971 0.458,-0.9287 C 10.949795,6.1078097 19.2546,0.5 28.6074,0.5 Z"
           id="path138" /><path
           style="baseline-shift:baseline;display:inline;overflow:visible;vector-effect:none;fill:#000000;enable-background:accumulate;stop-color:#000000;stop-opacity:1"
           d="m 28.607422,0.13867187 c -9.496948,0 -17.925012,5.69361573 -22.0781251,14.13085913 L 6.4628906,14.40625 6.3417969,14.039063 4.4394531,8.203125 V 8.1796875 L 4.4042969,8.1054688 C 4.0075653,7.2688548 3.0018595,6.9130186 2.1757813,7.3105469 1.7991655,7.4903008 1.4950663,7.7519338 1.34375,8.1132813 1.1924337,8.4746287 1.1966682,8.889801 1.2929687,9.3710938 l 0.00391,0.023437 1.8164063,5.3593747 1.4960937,4.275391 0.15625,0.259765 h 0.023437 l 0.1972656,0.246094 0.021484,0.02148 0.00391,0.002 c 0.042669,0.03955 0.082947,0.07245 0.125,0.105468 l 0.00391,0.0039 0.00391,0.002 c 0.1092472,0.08144 0.2220372,0.153154 0.34375,0.207031 l 0.00781,0.002 0.1132813,0.04492 0.017578,0.0059 c 0.00282,0.0013 -0.00267,-0.0011 0.00391,0.002 h 0.00195 l 0.021484,0.01172 0.027344,0.0078 c 0.1453113,0.04177 0.2981038,0.06627 0.4550781,0.06641 h 0.00586 c 0.1444503,0 0.2909829,-0.02005 0.4375,-0.06055 l 10.6777339,-2.947265 0.04687,-0.01367 c 0.447451,-0.123434 0.775626,-0.441573 0.921875,-0.820313 0.14625,-0.378739 0.136324,-0.804095 0.02344,-1.214843 l -0.02539,-0.0918 -0.06836,-0.06836 0.0918,0.160157 c -0.123434,-0.451863 -0.434876,-0.790095 -0.814453,-0.962891 -0.379577,-0.172796 -0.821139,-0.194675 -1.242188,-0.07617 l -0.03516,0.01172 v -0.002 l -6.5273437,1.722656 -0.3339844,0.0957 0.15625,-0.263672 h 0.00195 C 13.627558,8.2831597 20.324846,3.5039063 28.607422,3.5039063 c 9.428456,9.83e-5 17.629753,6.206946 20.429687,15.4453127 l 0.0039,0.0078 0.05078,0.144531 0.0039,0.0078 c 0.327328,0.785129 1.206348,1.207 2.03125,0.958984 l 0.002,-0.002 C 52.005914,19.795384 52.506369,18.852883 52.238281,17.96875 49.006626,7.30511 39.501384,0.1387703 28.607422,0.13867187 Z M 52.238281,17.96875 l 0.01563,0.105469 v -0.05469 z M 2.1757813,7.3105469 2.1210938,7.3359375 2.0761719,7.3808594 Z M 28.607422,0.86132813 c 10.575996,9.555e-5 19.791818,6.93965257 22.9375,17.31054687 6.07e-4,0.002 0.0013,0.0039 0.002,0.0059 v 0.002 c 0.155219,0.511902 -0.127882,1.040771 -0.628906,1.197266 -0.476898,0.143384 -0.968778,-0.09525 -1.15625,-0.544922 l -0.0332,-0.09375 -0.0059,-0.01758 C 46.829961,9.2034311 38.346627,2.7813516 28.607422,2.78125 c -8.560824,0 -15.505888,4.9678413 -19.779297,12.341797 l -1.0761719,1.816406 2.0683594,-0.587891 6.5664065,-1.734374 h 0.0039 c 0.270705,-0.07519 0.540559,-0.05557 0.744141,0.03711 0.204648,0.09316 0.348903,0.243261 0.417968,0.496094 l 0.002,0.0078 c 0.07885,0.291512 0.07205,0.566166 -0.002,0.757813 -0.07423,0.192219 -0.191355,0.315999 -0.4375,0.384765 -0.0012,3.26e-4 -7.82e-4,0.0016 -0.002,0.002 L 6.3886719,19.261719 c -0.082863,0.0229 -0.1670441,0.03516 -0.2460938,0.03516 h -0.00586 c -0.076683,-6.4e-5 -0.1575769,-0.01396 -0.2421875,-0.03711 -0.0093,-0.0041 -0.00936,-0.0045 -0.023437,-0.0098 l -0.00586,-0.002 -0.019531,-0.0059 -0.066406,-0.02539 -0.00195,-0.002 c -0.058997,-0.02635 -0.1251057,-0.06634 -0.2011718,-0.123047 -0.026052,-0.02058 -0.044689,-0.03675 -0.0625,-0.05273 l -0.1894532,-0.234375 -0.029297,-0.04687 -0.03125,-0.04102 -1.46875,-4.197266 L 2,9.2207031 C 1.9224013,8.8247163 1.938611,8.5624972 2.0097656,8.3925781 2.0817592,8.2206556 2.2093332,8.0931436 2.4863281,7.9609375 l 0.00391,-0.00195 C 2.9590027,7.7346492 3.515464,7.9288082 3.7480469,8.4082031 L 5.65625,14.263672 6.328125,16.308594 7.1777344,14.587891 C 11.216961,6.3820137 19.398769,0.86132813 28.607422,0.86132813 Z M 5.1542969,18.568359 h 0.019531 l 0.083984,0.140625 z"
           id="path139" /></g></g></g></svg>
