<?xml version="1.0" encoding="UTF-8" standalone="no"?>
<svg
   width="18.99"
   height="18.99"
   viewBox="0 0 14.2425 14.242499"
   version="1.1"
   id="svg1"
   sodipodi:docname="cancel2.svg"
   inkscape:version="1.4.2 (f4327f4, 2025-05-13)"
   xmlns:inkscape="http://www.inkscape.org/namespaces/inkscape"
   xmlns:sodipodi="http://sodipodi.sourceforge.net/DTD/sodipodi-0.dtd"
   xmlns="http://www.w3.org/2000/svg"
   xmlns:svg="http://www.w3.org/2000/svg">
  <defs
     id="defs1" />
  <sodipodi:namedview
     id="namedview1"
     pagecolor="#ffffff"
     bordercolor="#000000"
     borderopacity="0.25"
     inkscape:showpageshadow="2"
     inkscape:pageopacity="0.0"
     inkscape:pagecheckerboard="0"
     inkscape:deskcolor="#d1d1d1"
     inkscape:zoom="26.59375"
     inkscape:cx="7.7837838"
     inkscape:cy="10.848414"
     inkscape:window-width="1920"
     inkscape:window-height="1111"
     inkscape:window-x="-9"
     inkscape:window-y="-9"
     inkscape:window-maximized="1"
     inkscape:current-layer="svg1" />
  <!-- Icon from IconaMoon by Dariush Habibpour - https://creativecommons.org/licenses/by/4.0/ -->
  <g
     id="path1"
     style="opacity:1">
    <path
       style="baseline-shift:baseline;display:inline;overflow:visible;vector-effect:none;fill:#ffffff;stroke-linecap:round;stroke-linejoin:round;paint-order:stroke fill markers;enable-background:accumulate;stop-color:#000000;stop-opacity:1"
       d="M 2.1210938,0 C 1.5579734,8.501187e-5 1.0172844,0.22481812 0.61914062,0.62304687 c -0.82023507,0.82041033 -0.82023507,2.18349593 0,3.00390623 L 4.1171875,7.125 0.61914062,10.623047 c -0.82023439,0.82041 -0.82023439,2.183496 0,3.003906 0.82041028,0.820235 2.18349598,0.820235 3.00390628,0 l 3.4980468,-3.496094 3.4980473,3.496094 c 0.82041,0.820235 2.183496,0.820235 3.003906,0 0.820234,-0.82041 0.820234,-2.183496 0,-3.003906 L 10.126953,7.125 13.623047,3.6269531 c 0.820235,-0.8204103 0.820235,-2.1834959 0,-3.00390623 -0.82041,-0.82023439 -2.183496,-0.82023439 -3.003906,0 L 7.1210937,4.1210937 3.6230469,0.62304687 C 3.2249032,0.22481817 2.6842141,8.506818e-5 2.1210938,0 Z m 4.3808593,6.5058594 a 1.1251125,1.1251125 0 0 0 1.2382813,0 1.1251125,1.1251125 0 0 0 0,1.2382812 1.1251125,1.1251125 0 0 0 -1.2382813,0 1.1251125,1.1251125 0 0 0 0,-1.2382812 z"
       id="path2" />
    <path
       style="baseline-shift:baseline;display:inline;overflow:visible;vector-effect:none;fill:currentColor;stroke-linecap:round;stroke-linejoin:round;paint-order:stroke fill markers;enable-background:accumulate;stop-color:#000000;stop-opacity:1"
       d="m 2.1212497,1.1248561 a 1,1 0 0 0 -0.7070313,0.2929687 1,1 0 0 0 0,1.4140625 L 5.7071877,7.1248561 1.4142184,11.417825 a 1,1 0 0 0 0,1.414062 1,1 0 0 0 1.4140625,0 L 7.1212497,8.5389191 11.414219,12.831887 a 1,1 0 0 0 1.414062,0 1,1 0 0 0 0,-1.414062 L 8.5353127,7.1248561 12.828281,2.8318873 a 1,1 0 0 0 0,-1.4140625 1,1 0 0 0 -1.414062,0 L 7.1212497,5.7107941 2.8282809,1.4178248 A 1,1 0 0 0 2.1212497,1.1248561 Z"
       id="path3" />
  </g>
</svg>
