<?xml version="1.0" encoding="UTF-8" standalone="no"?>
<svg
   width="31.333334"
   height="31.333334"
   viewBox="0 0 23.5 23.5"
   version="1.1"
   id="svg1"
   sodipodi:docname="sun.svg"
   inkscape:version="1.4.2 (f4327f4, 2025-05-13)"
   xmlns:inkscape="http://www.inkscape.org/namespaces/inkscape"
   xmlns:sodipodi="http://sodipodi.sourceforge.net/DTD/sodipodi-0.dtd"
   xmlns="http://www.w3.org/2000/svg"
   xmlns:svg="http://www.w3.org/2000/svg">
  <defs
     id="defs1" />
  <sodipodi:namedview
     id="namedview1"
     pagecolor="#ffffff"
     bordercolor="#000000"
     borderopacity="0.25"
     inkscape:showpageshadow="2"
     inkscape:pageopacity="0.0"
     inkscape:pagecheckerboard="0"
     inkscape:deskcolor="#d1d1d1"
     inkscape:zoom="18.804621"
     inkscape:cx="11.805609"
     inkscape:cy="18.639036"
     inkscape:window-width="1920"
     inkscape:window-height="1111"
     inkscape:window-x="-9"
     inkscape:window-y="-9"
     inkscape:window-maximized="1"
     inkscape:current-layer="path13" />
  <!-- Icon from Material Symbols by Google - https://github.com/google/material-design-icons/blob/master/LICENSE -->
  <g
     id="path13"
     style="opacity:1"
     transform="translate(-0.25,-0.25)">
    <path
       style="fill:#ffffff;fill-rule:evenodd;stroke-width:3;paint-order:stroke fill markers"
       d="m 14.730422,20.105304 c -1.429174,-0.317652 -2.696493,-1.369425 -3.256728,-2.702822 -0.434609,-1.034402 -0.436468,-2.392593 -0.0047,-3.455109 0.507492,-1.248945 1.715312,-2.310708 3.048744,-2.680073 0.488389,-0.135285 1.798283,-0.135285 2.286672,0 0.759998,0.210522 1.385294,0.571381 1.986826,1.146598 0.649213,0.620814 1.037741,1.268065 1.262862,2.10381 0.16386,0.608321 0.164647,1.686479 0.0017,2.286672 -0.22112,0.814313 -0.575922,1.416222 -1.217188,2.064918 -0.630041,0.637339 -1.387297,1.054568 -2.243386,1.236048 -0.422669,0.0896 -1.461527,0.08958 -1.864741,-4.2e-5 z"
       id="path1"
       transform="matrix(0.74999998,0,0,0.74999998,0.25,0.25)" />
    <path
       style="baseline-shift:baseline;display:inline;overflow:visible;vector-effect:none;fill:#ffffff;paint-order:stroke fill markers;enable-background:accumulate;stop-color:#000000;stop-opacity:1"
       d="m 12,0.25 c -0.45235,0 -0.920145,0.18576974 -1.242187,0.5078125 C 10.436907,1.0787183 10.25,1.546242 10.25,2 v 2 c 0,0.4528911 0.184467,0.9208517 0.505859,1.2421875 4.35e-4,4.358e-4 0.0015,-4.353e-4 0.002,0 4.33e-4,4.33e-4 -4.35e-4,0.00152 0,0.00195 C 11.080488,5.5668554 11.549682,5.75 12,5.75 12.451173,5.75 12.920537,5.565792 13.244141,5.2421875 13.566182,4.920146 13.75,4.4523498 13.75,4 V 2 c 0,-0.4523568 -0.18543,-0.9206345 -0.505859,-1.2421875 l -0.002,-0.001953 C 12.919279,0.43407175 12.45235,0.25 12,0.25 Z m 0,1.5 c 0.114316,0 0.122502,0.00748 0.183594,0.068359 C 12.243613,1.8785974 12.25,1.8871559 12.25,2 v 2 c 0,0.1143168 -0.0058,0.1210156 -0.06641,0.1816406 C 12.123198,4.2420369 12.115493,4.25 12,4.25 11.884507,4.25 11.880245,4.24374 11.820313,4.183594 l -0.002,-0.00195 C 11.756869,4.1203647 11.75,4.1129156 11.75,4 V 2 c 0,-0.1129086 0.0053,-0.1185465 0.06836,-0.1816406 C 11.878983,1.7577353 11.885684,1.75 12,1.75 Z m 7.0625,1.4238281 c -0.457239,0 -0.921136,0.1984799 -1.242188,0.5195313 l -0.002,0.00391 -1.412109,1.4355469 -0.0098,0.00977 c -0.298462,0.3255964 -0.472656,0.776502 -0.472656,1.21875 0,0.4425125 0.179941,0.9025935 0.496094,1.21875 0.319745,0.319746 0.784681,0.4960938 1.230469,0.4960938 0.445787,0 0.910723,-0.1763495 1.230468,-0.4960938 L 20.306641,6.15625 c 0.321157,-0.3211581 0.492187,-0.7872672 0.492187,-1.2304688 0,-0.443198 -0.171024,-0.9112616 -0.492187,-1.2324218 C 19.984883,3.3716018 19.519963,3.1738281 19.0625,3.1738281 Z M 4.9257812,3.2011719 c -0.4361762,0 -0.8923405,0.1729527 -1.2128906,0.484375 -0.3350533,0.3134561 -0.5390625,0.7849214 -0.5390625,1.2402343 0,0.460321 0.1944871,0.9288622 0.5195313,1.2539063 l 0.00391,0.00195 1.4355469,1.4121094 0.00977,0.00977 c 0.3221836,0.2953349 0.7677572,0.4726563 1.2070313,0.4726563 0.4392735,0 0.8848473,-0.1773206 1.2070312,-0.4726563 l 0.011719,-0.011719 0.011719,-0.011719 C 7.8998231,7.260333 8.0761719,6.7953968 8.0761719,6.3496094 c 0,-0.4457869 -0.176348,-0.9107233 -0.4960938,-1.2304688 L 6.15625,3.6933594 C 5.8350923,3.3722015 5.3689835,3.2011719 4.9257812,3.2011719 Z M 19.0625,4.6738281 c 0.0932,0 0.103398,0.00379 0.181641,0.082031 0.04551,0.045506 0.05469,0.046453 0.05469,0.1699218 0,0.1234651 -0.0092,0.1224603 -0.05469,0.1679688 l -1.423829,1.4257812 c -0.04692,0.046923 -0.04904,0.056641 -0.169921,0.056641 -0.120879,0 -0.123002,-0.00972 -0.169922,-0.056641 -0.05051,-0.05051 -0.05664,-0.050049 -0.05664,-0.1582031 0,-0.1058555 0.01007,-0.1307113 0.07617,-0.203125 7.68e-4,-8.413e-4 0.0012,-0.0011 0.002,-0.00195 l 1.378906,-1.4003906 c 0.07895,-0.078949 0.08955,-0.082031 0.181641,-0.082031 z M 4.9257812,4.7011719 c 0.1234644,0 0.1224599,0.00918 0.1679688,0.054687 L 6.5195312,6.179687 c 0.046921,0.046921 0.056641,0.049042 0.056641,0.1699219 0,0.1112922 -0.014932,0.1186528 -0.052734,0.15625 -0.060935,0.05298 -0.089256,0.070312 -0.1738281,0.070312 -0.092913,0 -0.1158755,-0.00725 -0.1914063,-0.076172 -9.322e-4,-8.506e-4 -0.001,-0.00108 -0.00195,-0.00195 L 4.7558594,5.1191406 c -0.074956,-0.074956 -0.082031,-0.087014 -0.082031,-0.1933594 0,-0.1063456 -0.00157,-0.095082 0.056641,-0.1484375 l 0.013672,-0.011719 0.011719,-0.00977 c 0.045508,-0.045509 0.046457,-0.054687 0.1699218,-0.054687 z M 12,6.125 C 10.401242,6.125 8.9624926,6.7171948 7.8398437,7.8398437 6.7171948,8.9624926 6.125,10.401242 6.125,12 c 0,1.598758 0.5921953,3.037506 1.7148437,4.160156 C 8.9624926,17.282804 10.401242,17.875 12,17.875 c 1.598758,0 3.037506,-0.592196 4.160156,-1.714844 C 17.282804,15.037506 17.875,13.598758 17.875,12 17.875,10.401242 17.282804,8.9624926 16.160156,7.8398437 15.037506,6.7171953 13.598758,6.125 12,6.125 Z m 0,1.5 c 1.248464,0 2.229201,0.4049835 3.099609,1.2753906 C 15.970015,9.7707972 16.375,10.751536 16.375,12 c 0,1.248464 -0.404984,2.229201 -1.275391,3.099609 C 14.229201,15.970016 13.248464,16.375 12,16.375 10.751536,16.375 9.7707972,15.970015 8.9003906,15.099609 8.0299835,14.229201 7.625,13.248464 7.625,12 7.625,10.751536 8.029984,9.7707972 8.9003906,8.9003906 9.7707972,8.029984 10.751536,7.625 12,7.625 Z m 0,0.2070312 c -1.117525,0 -2.1499437,0.4311943 -2.9433594,1.2246094 C 8.2632249,9.8500558 7.8320312,10.882475 7.8320312,12 c 0,1.117525 0.4311944,2.149943 1.2246094,2.943359 0.7934151,0.793416 1.8258344,1.22461 2.9433594,1.22461 1.117525,0 2.149944,-0.431195 2.943359,-1.22461 0.793415,-0.793415 1.22461,-1.825834 1.22461,-2.943359 0,-1.117525 -0.431194,-2.1499443 -1.22461,-2.9433594 C 14.149943,8.2632256 13.117525,7.8320312 12,7.8320312 Z m 0,1.5000001 c 0.761641,0 1.338032,0.2403768 1.882813,0.7851567 0.544778,0.544778 0.785156,1.121171 0.785156,1.882812 0,0.761641 -0.240377,1.338032 -0.785156,1.882813 -0.544781,0.544779 -1.121172,0.785156 -1.882813,0.785156 -0.761641,0 -1.338034,-0.240378 -1.882812,-0.785156 C 9.5724081,13.338032 9.3320313,12.761641 9.3320313,12 c 0,-0.761641 0.2403776,-1.338034 0.7851567,-1.882812 C 10.661967,9.5724082 11.238359,9.3320313 12,9.3320313 Z M 2,10.25 c -0.4523568,0 -0.9201501,0.183829 -1.2421875,0.505859 C 0.43420906,11.079463 0.25,11.548827 0.25,12 c 0,0.450318 0.18314353,0.919512 0.50585937,1.242188 4.3249e-4,4.33e-4 0.00152,-4.34e-4 0.001953,0 4.353e-4,4.34e-4 -4.3581e-4,0.0015 0,0.002 C 1.0791441,13.565522 1.5471018,13.75 2,13.75 h 2 c 0.453751,0 0.9212775,-0.186896 1.2421875,-0.507812 C 5.5642303,12.920145 5.75,12.45235 5.75,12 5.75,11.54765 5.5659283,11.080721 5.2441406,10.757813 l -0.00195,-0.002 C 4.9206303,10.435419 4.4523498,10.25 4,10.25 Z m 18,0 c -0.452357,0 -0.920151,0.183829 -1.242188,0.505859 C 18.43421,11.079462 18.25,11.548826 18.25,12 c 0,0.450319 0.183145,0.919513 0.505859,1.242188 4.33e-4,4.33e-4 0.0015,-4.34e-4 0.002,0 4.36e-4,4.34e-4 -4.35e-4,0.0015 0,0.002 C 19.079144,13.565522 19.547102,13.75 20,13.75 h 2 c 0.453751,0 0.92275,-0.185295 1.244141,-0.507812 C 23.566855,12.919513 23.75,12.450319 23.75,12 23.75,11.548826 23.56579,11.079462 23.242187,10.755859 22.920146,10.433818 22.45235,10.25 22,10.25 Z m -18,1.5 h 2 c 0.1143168,0 0.121151,0.0061 0.1835937,0.06836 C 4.242348,11.877363 4.25,11.887149 4.25,12 4.25,12.114316 4.24226,12.121017 4.181641,12.181641 4.1185507,12.244732 4.1129156,12.25 4,12.25 H 2 c -0.1129086,0 -0.1203606,-0.0069 -0.1816406,-0.06836 l -0.00195,-0.002 C 1.7562648,12.119755 1.75,12.115493 1.75,12 1.75,11.884507 1.75796,11.876803 1.818359,11.816406 1.8789886,11.755778 1.8856902,11.75 2,11.75 Z m 18,0 h 2 c 0.114318,0 0.121016,0.0058 0.181641,0.06641 0.0604,0.0604 0.06836,0.0681 0.06836,0.183594 0,0.115492 -0.0063,0.119754 -0.06641,0.179688 l -0.002,0.002 C 22.120365,12.243131 22.112917,12.25 22,12.25 h -2 c -0.11291,0 -0.120361,-0.0069 -0.181641,-0.06836 l -0.002,-0.002 C 19.756264,12.119754 19.75,12.115492 19.75,12 c 0,-0.115492 0.008,-0.123197 0.06836,-0.183594 C 19.878988,11.755778 19.885689,11.75 20,11.75 Z M 6.3378906,15.923828 c -0.4425125,0 -0.9025934,0.179941 -1.21875,0.496094 L 3.6933594,17.84375 c -0.3211587,0.321158 -0.4921875,0.787267 -0.4921875,1.230469 0,0.436176 0.1729544,0.892341 0.484375,1.21289 0.3134561,0.335054 0.7849214,0.539063 1.2402343,0.539063 0.460321,0 0.9288622,-0.194487 1.2539063,-0.519531 L 7.5800781,18.90625 c 0.3210515,-0.321051 0.5195313,-0.784949 0.5195313,-1.242188 0,-0.457463 -0.1977736,-0.922382 -0.5195313,-1.24414 l -0.011719,-0.01172 -0.011719,-0.01172 C 7.2310437,16.09802 6.7801381,15.923826 6.3378901,15.923826 Z m 11.3007814,0 c -0.442513,0 -0.902594,0.179941 -1.21875,0.496094 -0.316159,0.316159 -0.496094,0.776241 -0.496094,1.21875 0,0.442251 0.174199,0.893155 0.472656,1.21875 l 0.0098,0.0098 1.390625,1.414063 c 0.313311,0.341795 0.793585,0.544922 1.253906,0.544922 0.460321,0 0.930815,-0.194487 1.25586,-0.519531 l 0.0098,-0.01172 0.01172,-0.01367 c 0.298435,-0.325566 0.47152,-0.767516 0.484375,-1.207031 0.01427,-0.464807 -0.185342,-0.96026 -0.53125,-1.277344 l -1.414063,-1.390625 -0.0098,-0.0098 C 18.53186,16.098023 18.080955,15.92383 17.638707,15.92383 Z m -11.3007814,1.5 c 0.098052,0 0.1263415,0.01849 0.1875,0.07227 0.060626,0.06251 0.074219,0.08252 0.074219,0.167968 0,0.0921 -0.00113,0.100739 -0.080078,0.179688 L 5.119141,19.244145 c -0.074956,0.07495 -0.087014,0.08203 -0.1933594,0.08203 -0.1063456,0 -0.095082,0.0016 -0.1484375,-0.05664 l -0.011719,-0.01367 -0.00977,-0.01172 c -0.04551,-0.04551 -0.054687,-0.04646 -0.054687,-0.169922 0,-0.123464 0.00918,-0.122461 0.054687,-0.167969 l 1.4238281,-1.425781 c 0.05051,-0.05051 0.050049,-0.05664 0.1582031,-0.05664 z m 11.3007814,0 c 0.105854,0 0.130712,0.01007 0.203125,0.07617 8.41e-4,7.68e-4 0.0011,0.0012 0.002,0.002 l 1.416016,1.392578 0.0098,0.0078 c 0.05409,0.04958 0.0461,0.02314 0.04297,0.125 v 0.002 c -0.0033,0.116174 -0.02694,0.157307 -0.08203,0.220703 -0.06227,0.06083 -0.08087,0.07617 -0.179688,0.07617 -0.106345,0 -0.09508,0.0016 -0.148437,-0.05664 l -0.0078,-0.0098 -1.392578,-1.416016 -0.002,-0.002 c -0.06611,-0.07242 -0.07617,-0.09727 -0.07617,-0.203125 0,-0.108159 0.0061,-0.107696 0.05664,-0.158203 0.05051,-0.05051 0.05005,-0.05664 0.158203,-0.05664 z M 12,18.25 c -0.450319,0 -0.919513,0.183145 -1.242187,0.505859 C 10.435306,19.077245 10.25,19.546242 10.25,20 v 2 c 0,0.452891 0.184467,0.920852 0.505859,1.242187 4.35e-4,4.36e-4 0.0015,-4.35e-4 0.002,0 4.33e-4,4.34e-4 -4.35e-4,0.0015 0,0.002 C 11.080487,23.566855 11.549681,23.75 12,23.75 c 0.451174,0 0.920538,-0.18421 1.244141,-0.507813 C 13.566182,22.920146 13.75,22.45235 13.75,22 v -2 c 0,-0.452357 -0.183829,-0.920151 -0.505859,-1.242188 C 12.920538,18.43421 12.451174,18.25 12,18.25 Z m 0,1.5 c 0.115492,0 0.123197,0.008 0.183594,0.06836 C 12.244222,19.878988 12.25,19.885689 12.25,20 v 2 c 0,0.114318 -0.0058,0.121016 -0.06641,0.181641 -0.0604,0.0604 -0.0681,0.06836 -0.183594,0.06836 -0.115492,0 -0.119754,-0.0063 -0.179687,-0.06641 l -0.002,-0.002 C 11.756869,22.120365 11.75,22.112917 11.75,22 v -2 c 0,-0.11291 0.0069,-0.120361 0.06836,-0.181641 l 0.002,-0.002 C 11.880246,19.756264 11.884508,19.75 12,19.75 Z"
       id="path24" />
    <path
       style="baseline-shift:baseline;display:inline;overflow:visible;vector-effect:none;fill:currentColor;paint-order:stroke fill markers;enable-background:accumulate;stop-color:#000000;stop-opacity:1"
       d="m 12,1.0004883 c -0.283333,0 -0.520581,0.095776 -0.711914,0.2871094 -0.192,0.192 -0.288574,0.4285807 -0.288574,0.711914 v 2.0009766 c 0,0.2833333 0.09657,0.5205807 0.288574,0.711914 0.191333,0.192 0.428581,0.2871094 0.711914,0.2871094 0.283333,0 0.521379,-0.095109 0.713379,-0.2871094 0.191333,-0.1913333 0.287109,-0.4285807 0.287109,-0.711914 V 1.9995117 c 0,-0.2833333 -0.09578,-0.519914 -0.287109,-0.711914 C 12.521379,1.0962643 12.283333,1.0004883 12,1.0004883 Z m 7.062012,2.9238281 c -0.274667,0 -0.511914,0.100293 -0.711914,0.300293 l -1.400391,1.4252929 c -0.183333,0.2 -0.275391,0.4372474 -0.275391,0.7119141 0,0.2753333 0.09206,0.5051432 0.275391,0.6884766 0.183333,0.1833333 0.416862,0.2753906 0.700195,0.2753906 0.283334,0 0.516862,-0.092057 0.700196,-0.2753906 L 19.775391,5.625 c 0.183333,-0.1833333 0.273925,-0.416862 0.273925,-0.7001953 0,-0.2833333 -0.09059,-0.516862 -0.273925,-0.7001953 -0.2,-0.2 -0.438046,-0.300293 -0.713379,-0.300293 z M 4.9248047,3.9506836 c -0.2833333,0 -0.516862,0.090592 -0.7001953,0.2739258 -0.2,0.1833333 -0.300293,0.416862 -0.300293,0.7001953 0,0.2833333 0.100293,0.5250976 0.300293,0.7250976 L 5.6499023,7.050293 c 0.2,0.1833333 0.4335287,0.2753906 0.7001954,0.2753906 0.2666666,0 0.5001953,-0.092057 0.7001953,-0.2753906 0.1833333,-0.1833334 0.2753906,-0.416862 0.2753906,-0.7001953 0,-0.2833334 -0.092057,-0.516862 -0.2753906,-0.7001954 L 5.625,4.2246094 C 5.4416667,4.041276 5.208138,3.9506836 4.9248047,3.9506836 Z M 12,6.875 C 10.576389,6.875 9.3667365,7.373681 8.3702088,8.3702088 7.373681,9.3667365 6.875,10.576389 6.875,12 c 0,1.423611 0.498681,2.633263 1.4952088,3.629792 C 9.3667365,16.626319 10.576389,17.125 12,17.125 c 1.423611,0 2.633263,-0.498681 3.629792,-1.495208 C 16.626319,14.633263 17.125,13.423611 17.125,12 17.125,10.576389 16.626319,9.3667365 15.629792,8.3702088 14.633263,7.373681 13.423611,6.875 12,6.875 Z m 0,1.7079163 c 0.939583,0 1.744507,0.3343818 2.413605,1.003479 0.669097,0.6690967 1.003479,1.4740217 1.003479,2.4136047 0,0.939583 -0.334382,1.744507 -1.003479,2.413605 -0.669098,0.669097 -1.474022,1.003479 -2.413605,1.003479 -0.939583,0 -1.744508,-0.334382 -2.4136047,-1.003479 C 8.9172981,13.744507 8.5829163,12.939583 8.5829163,12 c 0,-0.939583 0.3343818,-1.744508 1.003479,-2.4136047 C 10.255493,8.9172981 11.060417,8.5829163 12,8.5829163 Z M 1.9995117,10.999512 c -0.2833333,0 -0.5205807,0.09578 -0.711914,0.287109 -0.192,0.192 -0.2871094,0.430046 -0.2871094,0.713379 0,0.283333 0.095109,0.520581 0.2871094,0.711914 0.1913333,0.192 0.4285807,0.288574 0.711914,0.288574 h 2.0009766 c 0.2833333,0 0.519914,-0.09657 0.711914,-0.288574 C 4.9037357,12.520581 4.9995117,12.283333 4.9995117,12 c 0,-0.283333 -0.095776,-0.521379 -0.2871094,-0.713379 -0.192,-0.191333 -0.4285807,-0.287109 -0.711914,-0.287109 z m 18.0000003,0 c -0.283334,0 -0.520581,0.09578 -0.711914,0.287109 -0.192,0.192 -0.28711,0.430046 -0.28711,0.713379 0,0.283333 0.09511,0.520581 0.28711,0.711914 0.191333,0.192 0.42858,0.288574 0.711914,0.288574 h 2.000976 c 0.283334,0 0.520581,-0.09657 0.711914,-0.288574 0.192,-0.191333 0.28711,-0.428581 0.28711,-0.711914 0,-0.283333 -0.09511,-0.521379 -0.28711,-0.713379 -0.191333,-0.191333 -0.42858,-0.287109 -0.711914,-0.287109 z M 6.3383789,16.674316 c -0.2753333,0 -0.5051432,0.09206 -0.6884766,0.275391 L 4.2246094,18.375 c -0.1833334,0.183333 -0.2739258,0.416862 -0.2739258,0.700195 0,0.283334 0.090592,0.516862 0.2739258,0.700196 0.1833333,0.2 0.416862,0.300293 0.7001953,0.300293 0.2833333,0 0.5250976,-0.100293 0.7250976,-0.300293 L 7.050293,18.375 c 0.2,-0.2 0.3002929,-0.437247 0.3002929,-0.711914 0,-0.275333 -0.1002929,-0.513379 -0.3002929,-0.713379 -0.2,-0.183333 -0.4372474,-0.275391 -0.7119141,-0.275391 z m 11.2998051,0 c -0.275334,0 -0.505144,0.09206 -0.688477,0.275391 -0.183333,0.183333 -0.275391,0.413143 -0.275391,0.688477 0,0.274666 0.09206,0.511914 0.275391,0.711914 l 1.400391,1.425293 c 0.183333,0.2 0.416862,0.300293 0.700195,0.300293 0.283333,0 0.525098,-0.100293 0.725098,-0.300293 0.183333,-0.2 0.279109,-0.441765 0.287109,-0.725098 0.0087,-0.283333 -0.08711,-0.516862 -0.287109,-0.700195 l -1.425293,-1.400391 c -0.2,-0.183333 -0.437248,-0.275391 -0.711914,-0.275391 z M 12,19.000488 c -0.283333,0 -0.520581,0.09511 -0.711914,0.28711 -0.192,0.191333 -0.288574,0.42858 -0.288574,0.711914 v 2.000976 c 0,0.283334 0.09657,0.520581 0.288574,0.711914 0.191333,0.192 0.428581,0.28711 0.711914,0.28711 0.283333,0 0.521379,-0.09511 0.713379,-0.28711 0.191333,-0.191333 0.287109,-0.42858 0.287109,-0.711914 v -2.000976 c 0,-0.283334 -0.09578,-0.520581 -0.287109,-0.711914 -0.192,-0.192 -0.430046,-0.28711 -0.713379,-0.28711 z"
       id="path25" />
  </g>
</svg>
